<?xml version="1.0"?>
<svg version="1.1" xmlns="http://www.w3.org/2000/svg" xmlns:xlink="http://www.w3.org/1999/xlink" width="640" height="480">
    <desc iVinci="yes" version="4.6" gridStep="20" showGrid="no" snapToGrid="no" codePlatform="0"/>
    <g id="Layer1" name="Layer 1" opacity="1">
        <g id="Shape1">
            <desc shapeID="1" type="0" basicInfo-basicType="4" basicInfo-roundedRectRadius="12" basicInfo-polygonSides="6" basicInfo-starPoints="5" bounding="rect(-166,-180,332,360)" text="" font-familyName="Helvetica" font-pixelSize="20" font-bold="0" font-underline="0" font-alignment="1" strokeStyle="0" markerStart="0" markerEnd="0" shadowEnabled="0" shadowOffsetX="0" shadowOffsetY="2" shadowBlur="4" shadowOpacity="160" blurEnabled="0" blurRadius="4" transform="matrix(1,0,0,0.905556,312.5,259.004)" pers-center="0,0" pers-size="0,0" pers-start="0,0" pers-end="0,0" locked="0" mesh="" flag=""/>
            <path id="shapePath1" d="M146.5,259.004 C146.5,168.982 220.821,96.004 312.5,96.004 C404.179,96.004 478.5,168.982 478.5,259.004 C478.5,349.026 404.179,422.004 312.5,422.004 C220.821,422.004 146.5,349.026 146.5,259.004 Z" style="stroke:#323232;stroke-opacity:1;stroke-width:1;stroke-linejoin:miter;stroke-miterlimit:2;stroke-linecap:round;fill-rule:evenodd;fill:#63d7ff;fill-opacity:1;"/>
        </g>
        <g id="Shape2">
            <desc shapeID="2" type="0" basicInfo-basicType="0" basicInfo-roundedRectRadius="12" basicInfo-polygonSides="6" basicInfo-starPoints="5" bounding="rect(-74.3197,-75.6946,148.64,151.389)" text="" font-familyName="Helvetica" font-pixelSize="20" font-bold="0" font-underline="0" font-alignment="1" strokeStyle="0" markerStart="0" markerEnd="0" shadowEnabled="0" shadowOffsetX="0" shadowOffsetY="2" shadowBlur="4" shadowOpacity="160" blurEnabled="0" blurRadius="4" transform="matrix(0.952985,0,0,0.832729,266.95,203.894)" pers-center="0,0" pers-size="0,0" pers-start="0,0" pers-end="0,0" locked="0" mesh="" flag=""/>
            <path id="shapePath2" d="M203.727,165.334 L203.727,170.87 C200.463,172.909 197.858,175.066 196.124,178.99 C198.745,196.915 193.963,212.611 202.882,228.816 C219.773,238.389 221.129,254.003 240.051,258.344 C242.901,260.391 242.788,264.44 245.543,266.833 C250.352,267.433 254.463,264.906 258.637,266.094 C259.489,262.246 252.418,262.42 247.654,262.403 C248.229,256.365 243.029,256.14 238.362,255.021 C247.285,247.619 252.739,229.153 274.688,234.722 C276.115,224.04 276.54,212.352 288.204,205.934 C299.969,202.852 312.376,201.868 321.15,193.753 C326.423,192.97 330.947,194.954 335.933,195.23 C336.477,193.859 336.861,192.568 337.623,191.171 C339.64,178.951 321.027,183.301 317.771,172.715 C320.226,163.505 324.16,155.092 326.641,146.142 C316.667,136.32 305.12,141.525 299.186,150.94 C295.967,153.211 292.226,154.62 288.204,154.999 L283.558,154.999 C279.198,146.065 262.425,147.542 254.835,153.154 C244.141,154.509 234.771,150.491 224.001,150.571 C218.161,156.779 209.158,160.826 203.727,165.334 Z" style="stroke:#94eaff;stroke-opacity:1;stroke-width:6;stroke-linejoin:miter;stroke-miterlimit:2;stroke-linecap:round;fill-rule:evenodd;fill:url(#linearGradientFill2);fill-opacity:1;"/><defs><linearGradient id="linearGradientFill2" gradientUnits="userSpaceOnUse" x1="196.125" y1="203.894" x2="337.776" y2="203.894"><stop offset="0" stop-color="#55ff6d" stop-opacity="1"/><stop offset="1" stop-color="#55ff6d" stop-opacity="1"/></linearGradient></defs>
        </g>
        <g id="Shape3">
            <desc shapeID="3" type="0" basicInfo-basicType="0" basicInfo-roundedRectRadius="12" basicInfo-polygonSides="6" basicInfo-starPoints="5" bounding="rect(-56.4271,-77.5639,112.855,155.129)" text="" font-familyName="Helvetica" font-pixelSize="20" font-bold="0" font-underline="0" font-alignment="1" strokeStyle="0" markerStart="0" markerEnd="0" shadowEnabled="0" shadowOffsetX="0" shadowOffsetY="2" shadowBlur="4" shadowOpacity="160" blurEnabled="0" blurRadius="4" transform="matrix(0.930291,0,0,0.834136,286.062,329.901)" pers-center="0,0" pers-size="0,0" pers-start="0,0" pers-end="0,0" locked="0" mesh="" flag=""/>
            <path id="shapePath3" d="M253.204,265.202 C237.586,274.539 222.977,304.393 244.133,315.482 C245.132,319.357 251.169,320.519 254.029,323.246 C257.042,324.335 261.719,324.446 265.987,324.355 C280.695,313.406 281.016,335.563 280.418,353.562 C280.893,360.734 282.249,367.405 284.129,372.787 C289.598,381.864 297.03,389.01 305.982,394.6 C306.601,387.212 297.858,387.646 296.086,381.29 C310.331,361.019 311.002,328.279 336.494,311.415 C337.526,309.654 337.952,307.64 338.556,305.5 C334.545,302.272 334.118,296.709 333.196,291.081 C329.241,288.398 320.314,291.354 314.641,289.232 C306.603,280.615 292.333,274.966 278.356,275.923 C275.13,267.367 256.85,267.411 253.204,265.202 Z" style="stroke:#94eaff;stroke-opacity:1;stroke-width:6;stroke-linejoin:miter;stroke-miterlimit:2;stroke-linecap:round;fill-rule:evenodd;fill:#55ff6d;fill-opacity:1;"/>
        </g>
        <g id="Shape4">
            <desc shapeID="4" type="0" basicInfo-basicType="0" basicInfo-roundedRectRadius="12" basicInfo-polygonSides="6" basicInfo-starPoints="5" bounding="rect(-24.0536,-19.0098,48.1073,38.0197)" text="" font-familyName="Helvetica" font-pixelSize="20" font-bold="0" font-underline="0" font-alignment="1" strokeStyle="0" markerStart="0" markerEnd="0" shadowEnabled="0" shadowOffsetX="0" shadowOffsetY="2" shadowBlur="4" shadowOpacity="160" blurEnabled="0" blurRadius="4" transform="matrix(0.890251,0.0681852,-0.0653371,0.699541,393.609,126.938)" pers-center="0,0" pers-size="0,0" pers-start="0,0" pers-end="0,0" locked="0" mesh="" flag=""/>
            <path id="shapePath4" d="M373.437,111.999 C372.416,123.409 370.865,137.199 391.229,134.654 C397.549,145.311 405.085,139.535 414.29,136.421 C403.035,126.162 389.865,116.797 373.437,111.999 Z" style="stroke:#94eaff;stroke-opacity:1;stroke-width:6;stroke-linejoin:miter;stroke-miterlimit:2;stroke-linecap:round;fill-rule:evenodd;fill:#55ff6d;fill-opacity:1;"/>
        </g>
        <g id="Shape5">
            <desc shapeID="5" type="0" basicInfo-basicType="0" basicInfo-roundedRectRadius="12" basicInfo-polygonSides="6" basicInfo-starPoints="5" bounding="rect(-53.9969,-86.0782,107.993,172.156)" text="" font-familyName="Helvetica" font-pixelSize="20" font-bold="0" font-underline="0" font-alignment="1" strokeStyle="0" markerStart="0" markerEnd="0" shadowEnabled="0" shadowOffsetX="0" shadowOffsetY="2" shadowBlur="4" shadowOpacity="160" blurEnabled="0" blurRadius="4" transform="matrix(0.86674,0.044493,-0.0515404,0.823332,425.092,294.301)" pers-center="0,0" pers-size="0,0" pers-start="0,0" pers-end="0,0" locked="0" mesh="" flag=""/>
            <path id="shapePath5" d="M424.325,231.38 C417.629,229.767 414.59,233.743 411.114,236.815 C391.564,234.716 366.712,250.117 390.528,265.815 C393.538,270.362 394.965,274.966 398.318,278.441 C401.779,280.405 404.73,281.801 408.126,284.549 C433.587,283.906 449.784,314.163 430.924,331.567 L430.415,339.692 C435.339,346.642 429.419,360.067 434.14,365.864 C462.199,332.419 483.823,269.669 469.61,227.591 C457.732,219.824 434.476,232.045 424.325,231.38 Z" style="stroke:#94eaff;stroke-opacity:1;stroke-width:6;stroke-linejoin:miter;stroke-miterlimit:2;stroke-linecap:round;fill-rule:evenodd;fill:#55ff6d;fill-opacity:1;"/>
        </g>
        <g id="Shape6">
            <desc shapeID="6" type="0" basicInfo-basicType="0" basicInfo-roundedRectRadius="12" basicInfo-polygonSides="6" basicInfo-starPoints="5" bounding="rect(-52.9674,-37.6115,105.934,75.2229)" text="" font-familyName="Helvetica" font-pixelSize="20" font-bold="0" font-underline="0" font-alignment="1" strokeStyle="0" markerStart="0" markerEnd="0" shadowEnabled="0" shadowOffsetX="0" shadowOffsetY="2" shadowBlur="4" shadowOpacity="160" blurEnabled="0" blurRadius="4" transform="matrix(0.90728,-0.0441176,0.0495599,0.835776,411.72,178.137)" pers-center="0,0" pers-size="0,0" pers-start="0,0" pers-end="0,0" locked="0" mesh="" flag=""/>
            <path id="shapePath6" d="M460.956,195.705 C460.956,195.705 451.656,194.63 451.656,194.63 C451.656,194.63 447.354,193.966 447.354,193.966 C447.354,193.966 442.33,193.119 442.33,193.119 C442.33,193.119 434.855,190.865 434.855,190.865 C434.855,190.865 427.865,188.805 427.865,188.805 C427.865,188.805 420.965,188.268 420.965,188.268 C420.965,188.268 413.894,188.83 413.894,188.83 C413.894,188.83 409.771,191.212 409.771,191.212 C409.771,191.212 403.641,195.655 403.641,195.655 C403.641,195.655 400.923,197.751 400.948,198.186 C400.974,198.622 400.589,204.094 400.589,204.094 C400.589,204.094 398.828,206.361 398.828,206.361 C398.828,206.361 392.582,208.847 392.582,208.847 C392.582,208.847 386.073,210.909 386.073,210.909 C386.073,210.909 378.988,211.253 378.988,211.253 C378.988,211.253 372.758,210.029 372.758,210.029 C372.758,210.029 368.657,204.774 368.657,204.774 C368.657,204.774 365.539,200.127 365.539,200.127 C365.539,200.127 364.56,195.592 364.56,195.592 C364.56,195.592 367.922,192.375 367.922,192.375 C367.922,192.375 372.173,192.168 372.173,192.168 C372.173,192.168 378.497,190.988 378.497,190.988 C378.497,190.988 380.626,186.956 380.626,186.956 C380.626,186.956 382.163,184.919 382.399,184.908 C382.636,184.896 387.465,182.479 387.465,182.479 C387.465,182.479 391.024,178.597 391.024,178.597 C391.024,178.597 390.569,174.911 390.569,174.911 C390.569,174.911 388.697,171.294 388.697,171.294 C388.697,171.294 392.951,167.16 393.187,167.148 C393.424,167.136 402.087,161.479 402.087,161.479 C402.087,161.479 401.671,158.445 402.144,158.422 C402.615,158.4 407.575,158.158 407.575,158.158 C407.575,158.158 412.302,154.001 412.302,154.001 C412.302,154.001 415.719,147.727 415.719,147.727 C415.719,147.727 422.683,149.35 422.683,149.35 C422.683,149.35 425.56,145.938 425.56,145.938 C425.56,145.938 431.537,150.884 431.537,150.884 C431.537,150.884 438.639,158.829 438.639,158.829 C438.639,158.829 446.905,170.426 446.905,170.426 C446.905,170.426 453.626,179.916 453.626,179.916 C453.626,179.916 460.956,195.705 460.956,195.705 Z" style="stroke:#94eaff;stroke-opacity:1;stroke-width:6;stroke-linejoin:miter;stroke-miterlimit:2;stroke-linecap:round;fill-rule:evenodd;fill:#55ff6d;fill-opacity:1;"/>
        </g>
        <g id="Shape7">
            <desc shapeID="7" type="0" basicInfo-basicType="0" basicInfo-roundedRectRadius="12" basicInfo-polygonSides="6" basicInfo-starPoints="5" bounding="rect(-16.0335,-13.0064,32.067,26.0128)" text="" font-familyName="Helvetica" font-pixelSize="20" font-bold="0" font-underline="0" font-alignment="1" strokeStyle="0" markerStart="0" markerEnd="0" shadowEnabled="0" shadowOffsetX="0" shadowOffsetY="2" shadowBlur="4" shadowOpacity="160" blurEnabled="0" blurRadius="4" transform="matrix(1,0,0,0.905556,241.542,256.367)" pers-center="0,0" pers-size="0,0" pers-start="0,0" pers-end="0,0" locked="0" mesh="" flag=""/>
            <path id="shapePath7" d="M240.267,248.242 C237.197,259.879 252.01,261.689 257.575,267.762 C243.524,270.768 231.451,255.458 225.508,244.589 " style="stroke:#55ff6d;stroke-opacity:1;stroke-width:1;stroke-linejoin:miter;stroke-miterlimit:2;stroke-linecap:round;fill-rule:evenodd;fill:#55ff6d;fill-opacity:1;"/>
        </g>
        <g id="Shape8">
            <desc shapeID="8" type="0" basicInfo-basicType="0" basicInfo-roundedRectRadius="12" basicInfo-polygonSides="6" basicInfo-starPoints="5" bounding="rect(-19.877,-13.9566,39.754,27.9131)" text="" font-familyName="Helvetica" font-pixelSize="20" font-bold="0" font-underline="0" font-alignment="1" strokeStyle="0" markerStart="0" markerEnd="0" shadowEnabled="0" shadowOffsetX="0" shadowOffsetY="2" shadowBlur="4" shadowOpacity="160" blurEnabled="0" blurRadius="4" transform="matrix(1,0,0,0.905556,396.208,122.751)" pers-center="0,0" pers-size="0,0" pers-start="0,0" pers-end="0,0" locked="0" mesh="" flag=""/>
            <path id="shapePath8" d="M376.334,116.121 C376.258,113.962 377.513,111.995 378.346,110.112 C393.72,115.765 436.273,139.441 404.724,134.787 " style="stroke:#94eaff;stroke-opacity:1;stroke-width:0;stroke-linejoin:miter;stroke-miterlimit:2;stroke-linecap:round;fill-rule:evenodd;fill:#55ff6d;fill-opacity:1;"/>
        </g>
        <g id="Shape9">
            <desc shapeID="9" type="0" basicInfo-basicType="0" basicInfo-roundedRectRadius="12" basicInfo-polygonSides="6" basicInfo-starPoints="5" bounding="rect(-19.6005,-26.7679,39.201,53.536)" text="" font-familyName="Helvetica" font-pixelSize="20" font-bold="0" font-underline="0" font-alignment="1" strokeStyle="0" markerStart="0" markerEnd="0" shadowEnabled="0" shadowOffsetX="0" shadowOffsetY="2" shadowBlur="4" shadowOpacity="160" blurEnabled="0" blurRadius="4" transform="matrix(1,0,0,0.905556,445.154,170.485)" pers-center="0,0" pers-size="0,0" pers-start="0,0" pers-end="0,0" locked="0" mesh="" flag=""/>
            <path id="shapePath9" d="M425.553,150.907 C427.175,149.428 428.954,146.73 431.413,146.245 C445.333,159.283 458.306,178.905 464.754,194.725 C461.129,192.362 455.802,192.858 452.479,190.566 " style="stroke:#94eaff;stroke-opacity:1;stroke-width:0;stroke-linejoin:miter;stroke-miterlimit:2;stroke-linecap:round;fill-rule:evenodd;fill:#55ff6d;fill-opacity:1;"/>
        </g>
        <g id="Shape10">
            <desc shapeID="10" type="0" basicInfo-basicType="0" basicInfo-roundedRectRadius="12" basicInfo-polygonSides="6" basicInfo-starPoints="5" bounding="rect(-19.799,-44.48,39.598,88.96)" text="" font-familyName="Helvetica" font-pixelSize="20" font-bold="0" font-underline="0" font-alignment="1" strokeStyle="0" markerStart="0" markerEnd="0" shadowEnabled="0" shadowOffsetX="0" shadowOffsetY="2" shadowBlur="4" shadowOpacity="160" blurEnabled="0" blurRadius="4" transform="matrix(1,0,0,0.905556,455.102,326.899)" pers-center="0,0" pers-size="0,0" pers-start="0,0" pers-end="0,0" locked="0" mesh="" flag=""/>
            <path id="shapePath10" d="M436.186,352.871 C436.142,357.466 433.966,363.655 436.613,367.178 C455.04,347.633 469.465,321.234 474.901,293.58 L459.244,286.62 " style="stroke:#94eaff;stroke-opacity:1;stroke-width:0;stroke-linejoin:miter;stroke-miterlimit:2;stroke-linecap:round;fill-rule:evenodd;fill:#55ff6d;fill-opacity:1;"/>
        </g>
        <g id="Shape11">
            <desc shapeID="11" type="0" basicInfo-basicType="0" basicInfo-roundedRectRadius="12" basicInfo-polygonSides="6" basicInfo-starPoints="5" bounding="rect(-6.02435,-23.7195,12.0487,47.439)" text="" font-familyName="Helvetica" font-pixelSize="20" font-bold="0" font-underline="0" font-alignment="1" strokeStyle="0" markerStart="0" markerEnd="0" shadowEnabled="0" shadowOffsetX="0" shadowOffsetY="2" shadowBlur="4" shadowOpacity="160" blurEnabled="0" blurRadius="4" transform="matrix(1,0,0,0.905556,472.534,250.862)" pers-center="0,0" pers-size="0,0" pers-start="0,0" pers-end="0,0" locked="0" mesh="" flag=""/>
            <path id="shapePath11" d="M466.51,229.382 C485.549,232.742 475.716,258.592 478.031,272.249 C474.777,272.392 470.503,272.554 468.078,271.184 " style="stroke:#94eaff;stroke-opacity:1;stroke-width:0;stroke-linejoin:miter;stroke-miterlimit:2;stroke-linecap:round;fill-rule:evenodd;fill:#55ff6d;fill-opacity:1;"/>
        </g>
        <g id="Shape12">
            <desc shapeID="12" type="0" basicInfo-basicType="0" basicInfo-roundedRectRadius="12" basicInfo-polygonSides="6" basicInfo-starPoints="5" bounding="rect(-10.737,-15.6349,21.474,31.27)" text="" font-familyName="Helvetica" font-pixelSize="20" font-bold="0" font-underline="0" font-alignment="1" strokeStyle="0" markerStart="0" markerEnd="0" shadowEnabled="0" shadowOffsetX="0" shadowOffsetY="2" shadowBlur="4" shadowOpacity="160" blurEnabled="0" blurRadius="4" transform="matrix(1,0,0,0.905556,466.824,279.806)" pers-center="0,0" pers-size="0,0" pers-start="0,0" pers-end="0,0" locked="0" mesh="" flag=""/>
            <path id="shapePath12" d="M477.561,270.829 C476.898,278.502 476.221,286.629 474.426,293.965 C457.001,293.104 458.59,277.482 456.087,265.648 " style="stroke:#94eaff;stroke-opacity:1;stroke-width:0;stroke-linejoin:miter;stroke-miterlimit:2;stroke-linecap:round;fill-rule:evenodd;fill:#55ff6d;fill-opacity:1;"/>
        </g>
        <g id="Shape13">
            <desc shapeID="13" type="0" basicInfo-basicType="0" basicInfo-roundedRectRadius="12" basicInfo-polygonSides="6" basicInfo-starPoints="5" bounding="rect(-80.6476,-107.238,161.295,214.476)" text="" font-familyName="Helvetica" font-pixelSize="20" font-bold="0" font-underline="0" font-alignment="1" strokeStyle="0" markerStart="0" markerEnd="0" shadowEnabled="0" shadowOffsetX="0" shadowOffsetY="2" shadowBlur="4" shadowOpacity="160" blurEnabled="0" blurRadius="4" transform="matrix(1,0,0,0.905556,343.092,298.261)" pers-center="0,0" pers-size="0,0" pers-start="0,0" pers-end="0,0" locked="0" mesh="" flag=""/>
            <path id="shapePath13" d="M327.572,215.758 C312.538,209.295 302.302,223.922 291.509,226.644 C294,242.815 281.759,251.577 265.828,247.426 C262.701,249.083 262.176,252.448 262.549,255.837 C281.23,259.02 295.028,269.23 316.097,269.692 C316.158,284.68 338.977,277.515 348.882,283.052 C363.254,304.458 344.198,326.829 325.933,336.985 C324.408,339.47 323.95,342.348 322.654,344.408 C325.594,363.262 302.796,382.924 318.283,394.877 C354.521,397.541 401.262,389.761 423.74,363.21 C420.77,345.053 416.287,326.375 421.554,308.781 C408.334,295.918 384.711,287.258 370.738,272.661 C366.415,263.383 362.417,253.323 364.728,242.973 C372.874,235.95 383.94,225.155 397.512,225.16 C390.727,214.744 371.472,221.726 359.81,216.748 C358.284,215.503 356.067,215.378 354.346,214.274 C358.714,189.85 330.785,205.017 327.572,215.758 Z" style="stroke:#323232;stroke-opacity:1;stroke-width:0;stroke-linejoin:miter;stroke-miterlimit:2;stroke-linecap:round;fill-rule:evenodd;fill:#5bc7ec;fill-opacity:1;"/>
        </g>
        <g id="Shape14">
            <desc shapeID="14" type="0" basicInfo-basicType="0" basicInfo-roundedRectRadius="12" basicInfo-polygonSides="6" basicInfo-starPoints="5" bounding="rect(-88.245,-43.6333,176.49,87.2667)" text="" font-familyName="Helvetica" font-pixelSize="20" font-bold="0" font-underline="0" font-alignment="1" strokeStyle="0" markerStart="0" markerEnd="0" shadowEnabled="0" shadowOffsetX="0" shadowOffsetY="2" shadowBlur="4" shadowOpacity="160" blurEnabled="0" blurRadius="4" transform="matrix(1,0,0,0.905556,308.721,141.626)" pers-center="0,0" pers-size="0,0" pers-start="0,0" pers-end="0,0" locked="0" mesh="" flag=""/>
            <path id="shapePath14" d="M377.295,169.742 C366.12,195.34 314.125,173.077 334.129,149.455 C335.202,146.609 335.43,143.742 335.222,140.548 L329.211,133.126 C312.868,124.318 301.879,137.631 289.87,142.528 C268.487,128.026 242.317,147.498 220.476,134.116 C221.207,129.975 225.278,126.84 228.126,123.725 C233.674,120.438 239.191,117.307 245.611,114.819 C281.967,112.576 321.825,92.4585 355.985,107.891 C361.965,114.725 361.505,122.954 363.635,131.147 C365.39,134.527 367.699,137.608 370.192,140.548 C377.049,145.978 391.612,143.311 396.966,150.444 C393.816,156.777 385.498,155.859 378.934,157.372 C374.376,160.543 383.064,166.552 377.295,169.742 Z" style="stroke:#323232;stroke-opacity:1;stroke-width:0;stroke-linejoin:miter;stroke-miterlimit:2;stroke-linecap:round;fill-rule:evenodd;fill:#5cc7ec;fill-opacity:1;"/>
        </g>
        <g id="Shape15">
            <desc shapeID="15" type="0" basicInfo-basicType="0" basicInfo-roundedRectRadius="12" basicInfo-polygonSides="6" basicInfo-starPoints="5" bounding="rect(-69.8143,-124.308,139.629,248.616)" text="" font-familyName="Helvetica" font-pixelSize="20" font-bold="0" font-underline="0" font-alignment="1" strokeStyle="0" markerStart="0" markerEnd="0" shadowEnabled="0" shadowOffsetX="0" shadowOffsetY="2" shadowBlur="4" shadowOpacity="160" blurEnabled="0" blurRadius="4" transform="matrix(1,0,0,0.905556,232.713,297.154)" pers-center="0,0" pers-size="0,0" pers-start="0,0" pers-end="0,0" locked="0" mesh="" flag=""/>
            <path id="shapePath15" d="M177.31,184.586 C177.264,192.168 175.279,199.372 174.578,206.852 C155.902,244.404 160.187,289.8 183.409,325.133 C199.227,372.086 239.801,405.395 293.695,409.722 C296.979,408.989 299.603,407.066 301.891,404.773 C301.907,403.062 302.811,401.683 302.437,399.825 C283.07,390.575 261.741,373.09 263.642,349.356 L246.704,336.985 C204.356,336.403 221.825,285.436 224.301,263.26 C222.297,260.376 219.576,258.07 217.197,255.343 C200.486,250.167 180.748,239.595 188.238,219.717 C172.194,215.099 183.028,191.288 177.31,184.586 Z" style="stroke:#323232;stroke-opacity:1;stroke-width:0;stroke-linejoin:miter;stroke-miterlimit:2;stroke-linecap:round;fill-rule:evenodd;fill:#5cc7ec;fill-opacity:1;"/>
        </g>
        <g id="Shape16">
            <desc shapeID="16" type="0" basicInfo-basicType="0" basicInfo-roundedRectRadius="12" basicInfo-polygonSides="6" basicInfo-starPoints="5" bounding="rect(-28.2553,-24.3559,56.5105,48.7116)" text="" font-familyName="Helvetica" font-pixelSize="20" font-bold="0" font-underline="0" font-alignment="1" strokeStyle="0" markerStart="0" markerEnd="0" shadowEnabled="0" shadowOffsetX="0" shadowOffsetY="2" shadowBlur="4" shadowOpacity="160" blurEnabled="0" blurRadius="4" transform="matrix(1,0,0,0.905556,322.899,246.706)" pers-center="0,0" pers-size="0,0" pers-start="0,0" pers-end="0,0" locked="0" mesh="" flag=""/>
            <path id="shapePath16" d="M341.779,224.665 C330.284,224.301 320.677,230.633 313.365,237.53 C303.096,238.121 293.337,244.658 294.788,254.848 C296.288,256.751 300.044,257.18 301.344,258.311 C322.198,248.788 332.399,277.117 349.428,266.229 C350.222,264.026 351.499,262.317 351.068,259.796 C337.156,253.796 341.594,236.565 341.779,224.665 Z" style="stroke:#323232;stroke-opacity:1;stroke-width:0;stroke-linejoin:miter;stroke-miterlimit:2;stroke-linecap:round;fill-rule:evenodd;fill:#48baff;fill-opacity:1;"/>
        </g>
        <g id="Shape17">
            <desc shapeID="17" type="0" basicInfo-basicType="0" basicInfo-roundedRectRadius="12" basicInfo-polygonSides="6" basicInfo-starPoints="5" bounding="rect(-37.6692,-55.9662,75.3385,111.932)" text="" font-familyName="Helvetica" font-pixelSize="20" font-bold="0" font-underline="0" font-alignment="1" strokeStyle="0" markerStart="0" markerEnd="0" shadowEnabled="0" shadowOffsetX="0" shadowOffsetY="2" shadowBlur="4" shadowOpacity="160" blurEnabled="0" blurRadius="4" transform="matrix(1,0,0,0.905556,369.336,330.269)" pers-center="0,0" pers-size="0,0" pers-start="0,0" pers-end="0,0" locked="0" mesh="" flag=""/>
            <path id="shapePath17" d="M373.47,307.792 C373.175,311.93 374.265,316.365 372.378,320.163 C351.844,334.886 326.787,349.915 332.49,377.559 C356.975,388.012 394.206,372.984 406.801,350.345 C408.216,337.046 401.778,324.885 402.43,311.751 C393.6,298.929 377.155,295.144 362.542,289.484 C359.519,286.65 357.854,281.386 354.892,279.588 C364.664,289.001 369.432,301.243 374.563,312.245 L373.47,307.792 Z" style="stroke:#323232;stroke-opacity:1;stroke-width:0;stroke-linejoin:miter;stroke-miterlimit:2;stroke-linecap:round;fill-rule:evenodd;fill:#48baff;fill-opacity:1;"/>
        </g>
        <g id="Shape18">
            <desc shapeID="18" type="0" basicInfo-basicType="0" basicInfo-roundedRectRadius="12" basicInfo-polygonSides="6" basicInfo-starPoints="5" bounding="rect(-8.86323,-19.557,17.7265,39.114)" text="" font-familyName="Helvetica" font-pixelSize="20" font-bold="0" font-underline="0" font-alignment="1" strokeStyle="0" markerStart="0" markerEnd="0" shadowEnabled="0" shadowOffsetX="0" shadowOffsetY="2" shadowBlur="4" shadowOpacity="160" blurEnabled="0" blurRadius="4" transform="matrix(1,0,0,0.905556,356.332,145.888)" pers-center="0,0" pers-size="0,0" pers-start="0,0" pers-end="0,0" locked="0" mesh="" flag=""/>
            <path id="shapePath18" d="M364.728,148.96 C365.523,154.277 364.134,159.301 360.903,163.309 C340.45,166.633 349.86,140.434 348.336,128.178 C356.235,131.626 367.647,152.846 364.728,148.96 Z" style="stroke:#323232;stroke-opacity:1;stroke-width:0;stroke-linejoin:miter;stroke-miterlimit:2;stroke-linecap:round;fill-rule:evenodd;fill:#48baff;fill-opacity:1;"/>
        </g>
        <g id="Shape19">
            <desc shapeID="19" type="0" basicInfo-basicType="0" basicInfo-roundedRectRadius="12" basicInfo-polygonSides="6" basicInfo-starPoints="5" bounding="rect(-50.8651,-89.4621,101.729,178.925)" text="" font-familyName="Helvetica" font-pixelSize="20" font-bold="0" font-underline="0" font-alignment="1" strokeStyle="0" markerStart="0" markerEnd="0" shadowEnabled="0" shadowOffsetX="0" shadowOffsetY="2" shadowBlur="4" shadowOpacity="160" blurEnabled="0" blurRadius="4" transform="matrix(1,0,0,0.905556,223.15,313.369)" pers-center="0,0" pers-size="0,0" pers-start="0,0" pers-end="0,0" locked="0" mesh="" flag=""/>
            <path id="shapePath19" d="M176.217,250.395 C176.678,261.273 175.139,272.314 177.31,283.052 C196.875,325.482 217.559,388.575 272.931,394.383 C277.307,384.278 267.401,381.731 261.457,376.57 C253.685,352.014 217.194,352.489 209.548,327.584 C205.364,306.269 207.777,283.89 208.455,262.27 C207.869,260.016 205.192,259.492 205.176,257.322 C186.703,259.055 187.724,229.501 173.485,232.582 C170.335,238.053 174.149,251.214 176.217,250.395 Z" style="stroke:#323232;stroke-opacity:1;stroke-width:0;stroke-linejoin:miter;stroke-miterlimit:2;stroke-linecap:round;fill-rule:evenodd;fill:#48baff;fill-opacity:1;"/>
        </g>
        <g id="Shape20">
            <desc shapeID="20" type="0" basicInfo-basicType="0" basicInfo-roundedRectRadius="12" basicInfo-polygonSides="6" basicInfo-starPoints="5" bounding="rect(-54.786,-52.182,109.572,104.364)" text="" font-familyName="Helvetica" font-pixelSize="20" font-bold="0" font-underline="0" font-alignment="1" strokeStyle="0" markerStart="0" markerEnd="0" shadowEnabled="0" shadowOffsetX="0" shadowOffsetY="2" shadowBlur="4" shadowOpacity="160" blurEnabled="0" blurRadius="4" transform="matrix(1,0,0,0.905556,265.683,199.677)" pers-center="0,0" pers-size="0,0" pers-start="0,0" pers-end="0,0" locked="0" mesh="" flag=""/>
            <path id="shapePath20" d="M243.425,162.815 C231.659,156.782 213.554,163.004 217.197,176.669 C205.001,192.294 211.417,220.346 228.672,233.571 C230.494,238.895 234.055,241.97 235.229,246.931 C233.319,231.719 251.163,228.018 262.003,224.665 C263.98,222.438 263.86,219.186 265.281,216.748 C265.036,189.559 303.833,195.231 320.469,183.597 C304.63,181.282 308.827,160.735 315.005,152.424 C305.399,154.833 300.898,166.416 287.684,167.268 L282.22,167.268 C274.202,148.169 257.699,158.273 243.425,162.815 Z" style="stroke:#323232;stroke-opacity:1;stroke-width:0;stroke-linejoin:miter;stroke-miterlimit:2;stroke-linecap:round;fill-rule:evenodd;fill:#48d95d;fill-opacity:1;"/>
        </g>
        <g id="Shape21">
            <desc shapeID="21" type="0" basicInfo-basicType="0" basicInfo-roundedRectRadius="12" basicInfo-polygonSides="6" basicInfo-starPoints="5" bounding="rect(-38.696,-48.8801,77.392,97.7602)" text="" font-familyName="Helvetica" font-pixelSize="20" font-bold="0" font-underline="0" font-alignment="1" strokeStyle="0" markerStart="0" markerEnd="0" shadowEnabled="0" shadowOffsetX="0" shadowOffsetY="2" shadowBlur="4" shadowOpacity="160" blurEnabled="0" blurRadius="4" transform="matrix(1,0,0,0.905556,285.616,318.452)" pers-center="0,0" pers-size="0,0" pers-start="0,0" pers-end="0,0" locked="0" mesh="" flag=""/>
            <path id="shapePath21" d="M284.406,285.526 C278.718,286.406 276.232,284.44 271.838,282.557 C255.665,257.606 235.899,295.19 254.353,307.792 C256.13,309.786 258.396,310.364 260.364,311.255 C297.561,299.941 290.582,342.267 294.788,362.715 C304.234,348.198 299.718,318.62 323.747,311.255 C324.525,309.005 324.262,306.365 324.294,303.834 C321.762,297.153 310.177,299.757 303.53,295.917 C303.904,285.928 285.052,285.449 284.406,285.526 Z" style="stroke:#323232;stroke-opacity:1;stroke-width:0;stroke-linejoin:miter;stroke-miterlimit:2;stroke-linecap:round;fill-rule:evenodd;fill:#48d95d;fill-opacity:1;"/>
        </g>
        <g id="Shape22">
            <desc shapeID="22" type="0" basicInfo-basicType="0" basicInfo-roundedRectRadius="12" basicInfo-polygonSides="6" basicInfo-starPoints="5" bounding="rect(-35.2811,-25.9886,70.5621,51.9771)" text="" font-familyName="Helvetica" font-pixelSize="20" font-bold="0" font-underline="0" font-alignment="1" strokeStyle="0" markerStart="0" markerEnd="0" shadowEnabled="0" shadowOffsetX="0" shadowOffsetY="2" shadowBlur="4" shadowOpacity="160" blurEnabled="0" blurRadius="4" transform="matrix(1,0,0,0.905556,414.687,176.948)" pers-center="0,0" pers-size="0,0" pers-start="0,0" pers-end="0,0" locked="0" mesh="" flag=""/>
            <path id="shapePath22" d="M434.668,153.414 C409.035,160.814 406.197,187.053 381.12,195.966 C379.968,196.902 379.147,198.138 379.481,200.42 C397.93,202.388 414.078,156.451 440.132,182.111 C442.849,183.172 447.425,184.501 449.968,183.101 C449.327,172.551 441.245,156.566 434.668,153.414 Z" style="stroke:#323232;stroke-opacity:1;stroke-width:0;stroke-linejoin:miter;stroke-miterlimit:2;stroke-linecap:round;fill-rule:evenodd;fill:#48d95d;fill-opacity:1;"/>
        </g>
        <g id="Shape23">
            <desc shapeID="23" type="0" basicInfo-basicType="0" basicInfo-roundedRectRadius="12" basicInfo-polygonSides="6" basicInfo-starPoints="5" bounding="rect(-39.0685,-65.7904,78.137,131.581)" text="" font-familyName="Helvetica" font-pixelSize="20" font-bold="0" font-underline="0" font-alignment="1" strokeStyle="0" markerStart="0" markerEnd="0" shadowEnabled="0" shadowOffsetX="0" shadowOffsetY="2" shadowBlur="4" shadowOpacity="160" blurEnabled="0" blurRadius="4" transform="matrix(1,0,0,0.905556,434.941,294.231)" pers-center="0,0" pers-size="0,0" pers-start="0,0" pers-end="0,0" locked="0" mesh="" flag=""/>
            <path id="shapePath23" d="M474.01,241.489 C450.7,222.655 427.946,248.937 400.244,246.931 C399.449,248.061 397.075,248.523 395.873,249.9 C396.164,256.821 401.517,262.681 407.348,265.734 C406.668,287.944 440.543,274.704 449.968,292.453 C461.771,315.848 438.355,330.284 443.957,353.808 C466.658,322.605 472.808,273.797 474.01,241.489 Z" style="stroke:#323232;stroke-opacity:1;stroke-width:0;stroke-linejoin:miter;stroke-miterlimit:2;stroke-linecap:round;fill-rule:evenodd;fill:#48d95d;fill-opacity:1;"/>
        </g>
        <g id="Shape24">
            <desc shapeID="24" type="0" basicInfo-basicType="0" basicInfo-roundedRectRadius="12" basicInfo-polygonSides="6" basicInfo-starPoints="5" bounding="rect(-25.0277,-52.1938,50.0554,104.388)" text="" font-familyName="Helvetica" font-pixelSize="20" font-bold="0" font-underline="0" font-alignment="1" strokeStyle="0" markerStart="0" markerEnd="0" shadowEnabled="0" shadowOffsetX="0" shadowOffsetY="2" shadowBlur="4" shadowOpacity="160" blurEnabled="0" blurRadius="4" transform="matrix(1,0,0,0.905556,270.158,322.883)" pers-center="0,0" pers-size="0,0" pers-start="0,0" pers-end="0,0" locked="0" mesh="" flag=""/>
            <path id="shapePath24" d="M260.876,275.817 C233.863,271.934 243.951,326.38 273.364,311.399 C276.369,311.543 279.649,310.902 282.197,312.225 C294.147,326.189 287.839,352.428 294.076,370.147 C297.383,352.657 292.535,330.904 289.507,310.571 C283.094,304.158 270.231,306.355 260.876,309.192 C257.478,309.495 255.518,308.842 253.261,307.261 C239.471,295.925 254.469,276.782 260.876,275.817 Z" style="stroke:#be9b3e;stroke-opacity:1;stroke-width:1.5;stroke-linejoin:miter;stroke-miterlimit:2;stroke-linecap:round;fill-rule:evenodd;fill:#be9b3e;fill-opacity:1;"/>
        </g>
        <g id="Shape25">
            <desc shapeID="25" type="0" basicInfo-basicType="0" basicInfo-roundedRectRadius="12" basicInfo-polygonSides="6" basicInfo-starPoints="5" bounding="rect(-19.5772,-55.0804,39.1544,110.16)" text="" font-familyName="Helvetica" font-pixelSize="20" font-bold="0" font-underline="0" font-alignment="1" strokeStyle="0" markerStart="0" markerEnd="0" shadowEnabled="0" shadowOffsetX="0" shadowOffsetY="2" shadowBlur="4" shadowOpacity="160" blurEnabled="0" blurRadius="4" transform="matrix(1,0,0,0.905556,228.607,215.898)" pers-center="0,0" pers-size="0,0" pers-start="0,0" pers-end="0,0" locked="0" mesh="" flag=""/>
            <path id="shapePath25" d="M213.563,171.724 C197.604,211.114 227.294,243.174 248.184,265.776 C238.714,257.46 235.793,243.644 230.008,232.074 C213.055,214.587 212.404,193.84 218.756,168.589 C219.115,160.758 209.726,173.493 213.563,171.724 Z" style="stroke:#be9b3e;stroke-opacity:1;stroke-width:1;stroke-linejoin:miter;stroke-miterlimit:2;stroke-linecap:round;fill-rule:evenodd;fill:#be9b3e;fill-opacity:1;"/>
        </g>
        <g id="Shape26">
            <desc shapeID="26" type="0" basicInfo-basicType="0" basicInfo-roundedRectRadius="12" basicInfo-polygonSides="6" basicInfo-starPoints="5" bounding="rect(-11.2516,-27.6965,22.503,55.393)" text="" font-familyName="Helvetica" font-pixelSize="20" font-bold="0" font-underline="0" font-alignment="1" strokeStyle="0" markerStart="0" markerEnd="0" shadowEnabled="0" shadowOffsetX="0" shadowOffsetY="2" shadowBlur="4" shadowOpacity="160" blurEnabled="0" blurRadius="4" transform="matrix(1,0,0,0.905556,225.681,223.844)" pers-center="0,0" pers-size="0,0" pers-start="0,0" pers-end="0,0" locked="0" mesh="" flag=""/>
            <path id="shapePath26" d="M214.429,198.764 C215.704,211.336 227.475,215.502 234.336,224.628 C236.74,231.751 234.122,241.914 236.932,248.925 " style="stroke:#be9b3e;stroke-opacity:1;stroke-width:1;stroke-linejoin:miter;stroke-miterlimit:2;stroke-linecap:round;fill-rule:evenodd;fill:#be9b3e;fill-opacity:1;"/>
        </g>
        <g id="Shape27">
            <desc shapeID="27" type="0" basicInfo-basicType="0" basicInfo-roundedRectRadius="12" basicInfo-polygonSides="6" basicInfo-starPoints="5" bounding="rect(-6.9435,-13.7505,13.887,27.501)" text="" font-familyName="Helvetica" font-pixelSize="20" font-bold="0" font-underline="0" font-alignment="1" strokeStyle="0" markerStart="0" markerEnd="0" shadowEnabled="0" shadowOffsetX="0" shadowOffsetY="2" shadowBlur="4" shadowOpacity="160" blurEnabled="0" blurRadius="4" transform="matrix(1,0,0,0.905556,223.135,219.268)" pers-center="0,0" pers-size="0,0" pers-start="0,0" pers-end="0,0" locked="0" mesh="" flag=""/>
            <path id="shapePath27" d="M222.594,214.674 C220.943,211.795 219.393,208.777 216.277,206.816 C215.588,212.794 219.022,228.975 228.847,231.72 C232.9,226.774 225.936,218.478 222.594,214.674 Z" style="stroke:#be9b3e;stroke-opacity:1;stroke-width:1;stroke-linejoin:miter;stroke-miterlimit:2;stroke-linecap:round;fill-rule:evenodd;fill:#be9b3e;fill-opacity:1;"/>
        </g>
        <g id="Shape28">
            <desc shapeID="28" type="0" basicInfo-basicType="0" basicInfo-roundedRectRadius="12" basicInfo-polygonSides="6" basicInfo-starPoints="5" bounding="rect(-3.67449,-27.151,7.349,54.302)" text="" font-familyName="Helvetica" font-pixelSize="20" font-bold="0" font-underline="0" font-alignment="1" strokeStyle="0" markerStart="0" markerEnd="0" shadowEnabled="0" shadowOffsetX="0" shadowOffsetY="2" shadowBlur="4" shadowOpacity="160" blurEnabled="0" blurRadius="4" transform="matrix(1,0,0,0.905556,221.087,191.814)" pers-center="0,0" pers-size="0,0" pers-start="0,0" pers-end="0,0" locked="0" mesh="" flag=""/>
            <path id="shapePath28" d="M224.762,216.4 C211.834,205.392 225.777,171.368 217.413,167.227 " style="stroke:#be9b3e;stroke-opacity:1;stroke-width:1;stroke-linejoin:miter;stroke-miterlimit:2;stroke-linecap:round;fill-rule:evenodd;fill:#be9b3e;fill-opacity:1;"/>
        </g>
        <g id="Shape29">
            <desc shapeID="29" type="0" basicInfo-basicType="0" basicInfo-roundedRectRadius="12" basicInfo-polygonSides="6" basicInfo-starPoints="5" bounding="rect(-4.47899,-22.9766,8.95797,45.953)" text="" font-familyName="Helvetica" font-pixelSize="20" font-bold="0" font-underline="0" font-alignment="1" strokeStyle="0" markerStart="0" markerEnd="0" shadowEnabled="0" shadowOffsetX="0" shadowOffsetY="2" shadowBlur="4" shadowOpacity="160" blurEnabled="0" blurRadius="4" transform="matrix(1,0,0,0.905556,216.086,191.111)" pers-center="0,0" pers-size="0,0" pers-start="0,0" pers-end="0,0" locked="0" mesh="" flag=""/>
            <path id="shapePath29" d="M215.629,170.305 C223.753,180.062 219.183,198.72 220.085,211.918 C207.385,203.143 211.664,181.077 215.629,170.305 Z" style="stroke:#be9b3e;stroke-opacity:1;stroke-width:1;stroke-linejoin:miter;stroke-miterlimit:2;stroke-linecap:round;fill-rule:evenodd;fill:#be9b3e;fill-opacity:1;"/>
        </g>
        <g id="Shape30">
            <desc shapeID="30" type="0" basicInfo-basicType="0" basicInfo-roundedRectRadius="12" basicInfo-polygonSides="6" basicInfo-starPoints="5" bounding="rect(-13.6733,-28.8395,27.3465,57.6791)" text="" font-familyName="Helvetica" font-pixelSize="20" font-bold="0" font-underline="0" font-alignment="1" strokeStyle="0" markerStart="0" markerEnd="0" shadowEnabled="0" shadowOffsetX="0" shadowOffsetY="2" shadowBlur="4" shadowOpacity="160" blurEnabled="0" blurRadius="4" transform="matrix(1,0,0,0.905556,454.332,330.186)" pers-center="0,0" pers-size="0,0" pers-start="0,0" pers-end="0,0" locked="0" mesh="" flag=""/>
            <path id="shapePath30" d="M445.017,321.927 C438.466,333.065 440.999,342.72 441.891,355.493 C445.294,349.254 451.202,345.772 453.949,338.912 C449.825,340.106 437.883,354.062 444.571,356.301 C451.826,339.079 474.022,325.426 466.453,304.133 C464.253,303.892 462.784,304.317 462.434,305.751 C460.914,307.64 461.067,310.157 461.094,312.626 C443.415,313.11 461.011,324.582 456.182,330.42 C447.545,335.294 444.631,322.8 445.017,321.927 Z" style="stroke:#be9b3e;stroke-opacity:1;stroke-width:1;stroke-linejoin:miter;stroke-miterlimit:2;stroke-linecap:round;fill-rule:evenodd;fill:#be9b3e;fill-opacity:1;"/>
        </g>
        <g id="Shape31">
            <desc shapeID="31" type="0" basicInfo-basicType="0" basicInfo-roundedRectRadius="12" basicInfo-polygonSides="6" basicInfo-starPoints="5" bounding="rect(-9.79645,-15.3515,19.593,30.703)" text="" font-familyName="Helvetica" font-pixelSize="20" font-bold="0" font-underline="0" font-alignment="1" strokeStyle="0" markerStart="0" markerEnd="0" shadowEnabled="0" shadowOffsetX="0" shadowOffsetY="2" shadowBlur="4" shadowOpacity="160" blurEnabled="0" blurRadius="4" transform="matrix(1,0,0,0.905556,451.172,346.411)" pers-center="0,0" pers-size="0,0" pers-start="0,0" pers-end="0,0" locked="0" mesh="" flag=""/>
            <path id="shapePath31" d="M460.969,332.51 C458.515,342.479 445.537,354.409 442.916,360.313 C438.665,351.235 443.668,339.277 452.373,335.401 " style="stroke:#be9b3e;stroke-opacity:1;stroke-width:1;stroke-linejoin:miter;stroke-miterlimit:2;stroke-linecap:round;fill-rule:evenodd;fill:#be9b3e;fill-opacity:1;"/>
        </g>
        <g id="Shape32">
            <desc shapeID="32" type="0" basicInfo-basicType="0" basicInfo-roundedRectRadius="12" basicInfo-polygonSides="6" basicInfo-starPoints="5" bounding="rect(-24.7498,-12.4586,49.4996,24.9171)" text="" font-familyName="Helvetica" font-pixelSize="20" font-bold="0" font-underline="0" font-alignment="1" strokeStyle="0" markerStart="0" markerEnd="0" shadowEnabled="0" shadowOffsetX="0" shadowOffsetY="2" shadowBlur="4" shadowOpacity="160" blurEnabled="0" blurRadius="4" transform="matrix(1,0,0,0.905556,422.206,176.684)" pers-center="0,0" pers-size="0,0" pers-start="0,0" pers-end="0,0" locked="0" mesh="" flag=""/>
            <path id="shapePath32" d="M397.456,187.96 C406.105,182.734 410.953,174.164 420.477,167.447 C432.077,161.373 447.393,169.775 446.946,180.267 C441.305,182.687 433.921,173.648 432.542,182.051 C420.44,171.514 410.823,188.348 397.456,187.96 Z" style="stroke:#be9b3e;stroke-opacity:1;stroke-width:1;stroke-linejoin:miter;stroke-miterlimit:2;stroke-linecap:round;fill-rule:evenodd;fill:#be9b3e;fill-opacity:1;"/>
        </g>
        <g id="Shape33">
            <desc shapeID="33" type="0" basicInfo-basicType="0" basicInfo-roundedRectRadius="12" basicInfo-polygonSides="6" basicInfo-starPoints="5" bounding="rect(-43.6003,-37.2981,87.2007,74.5962)" text="" font-familyName="Helvetica" font-pixelSize="20" font-bold="0" font-underline="0" font-alignment="1" strokeStyle="0" markerStart="0" markerEnd="0" shadowEnabled="0" shadowOffsetX="0" shadowOffsetY="2" shadowBlur="4" shadowOpacity="160" blurEnabled="0" blurRadius="4" transform="matrix(1,0,0,0.905556,264.959,197.193)" pers-center="0,0" pers-size="0,0" pers-start="0,0" pers-end="0,0" locked="0" mesh="" flag=""/>
            <path id="shapePath33" d="M225.925,168.537 C215.137,189.37 225.17,219.14 238.325,230.969 C243.496,226.525 244.637,220.212 253.205,221.088 C254.952,218.705 255.368,215.581 256.677,213.004 C254.669,189.168 287.533,190.943 304.292,182.012 C306.23,177.472 313.112,163.093 303.796,163.596 C300.255,172.409 296.388,178.126 281.477,174.825 C279.031,175.31 278.104,176.932 275.029,176.622 C274.251,145.501 242.551,181.258 229.397,165.842 C227.118,165.603 227.551,167.742 225.925,168.537 Z" style="stroke:#dbc76d;stroke-opacity:1;stroke-width:1;stroke-linejoin:miter;stroke-miterlimit:2;stroke-linecap:round;fill-rule:evenodd;fill:#dbc76d;fill-opacity:1;"/>
        </g>
        <g id="Shape34">
            <desc shapeID="34" type="0" basicInfo-basicType="0" basicInfo-roundedRectRadius="12" basicInfo-polygonSides="6" basicInfo-starPoints="5" bounding="rect(-34.0321,-35.91,68.0643,71.82)" text="" font-familyName="Helvetica" font-pixelSize="20" font-bold="0" font-underline="0" font-alignment="1" strokeStyle="0" markerStart="0" markerEnd="0" shadowEnabled="0" shadowOffsetX="0" shadowOffsetY="2" shadowBlur="4" shadowOpacity="160" blurEnabled="0" blurRadius="4" transform="matrix(1,0,0,0.905556,286.244,323.491)" pers-center="0,0" pers-size="0,0" pers-start="0,0" pers-end="0,0" locked="0" mesh="" flag=""/>
            <path id="shapePath34" d="M296.643,356.01 C295.6,345.109 300.606,336.537 299.712,325.715 C302.764,321.682 301.165,315.34 301.554,309.873 C306.621,305.996 309.989,313.623 315.366,313.208 C318.096,311.687 320.228,309.741 320.276,306.538 C315.876,299.483 308.865,297.807 299.712,299.311 C291.431,286.709 270.909,298.742 257.357,299.867 C253.474,298.196 253.132,294.57 253.367,290.973 C247.061,308.589 268.075,304.346 280.007,301.417 C284.212,306.199 291.278,306.682 293.433,312.615 L296.643,356.01 Z" style="stroke:#dbc76d;stroke-opacity:1;stroke-width:1;stroke-linejoin:miter;stroke-miterlimit:2;stroke-linecap:round;fill-rule:evenodd;fill:#dbc76d;fill-opacity:1;"/>
        </g>
        <g id="Shape35">
            <desc shapeID="35" type="0" basicInfo-basicType="0" basicInfo-roundedRectRadius="12" basicInfo-polygonSides="6" basicInfo-starPoints="5" bounding="rect(-29.2746,-31.4316,58.549,62.8632)" text="" font-familyName="Helvetica" font-pixelSize="20" font-bold="0" font-underline="0" font-alignment="1" strokeStyle="0" markerStart="0" markerEnd="0" shadowEnabled="0" shadowOffsetX="0" shadowOffsetY="2" shadowBlur="4" shadowOpacity="160" blurEnabled="0" blurRadius="4" transform="matrix(1,0,0,0.905556,438.245,271.501)" pers-center="0,0" pers-size="0,0" pers-start="0,0" pers-end="0,0" locked="0" mesh="" flag=""/>
            <path id="shapePath35" d="M467.519,244.32 C452.463,243.937 435.786,238.529 428.68,253.244 C421.874,253.898 409.509,250.913 408.97,258.493 C415.579,259.735 420.219,263.659 419.404,270.567 C441.149,271.522 455.701,285.015 462.301,299.964 C468.02,283.219 464.556,262.458 467.519,244.32 Z" style="stroke:#dbc76d;stroke-opacity:1;stroke-width:1;stroke-linejoin:miter;stroke-miterlimit:2;stroke-linecap:round;fill-rule:evenodd;fill:#dbc76d;fill-opacity:1;"/>
        </g>
    </g>
</svg>
