<?xml version="1.0"?>
<svg version="1.1" xmlns="http://www.w3.org/2000/svg" xmlns:xlink="http://www.w3.org/1999/xlink" width="640" height="480">
    <desc iVinci="yes" version="4.6" gridStep="20" showGrid="no" snapToGrid="no" codePlatform="0"/>
    <g id="Layer1" name="Layer 1" opacity="1">
        <g id="Shape1">
            <desc shapeID="1" type="0" basicInfo-basicType="4" basicInfo-roundedRectRadius="12" basicInfo-polygonSides="6" basicInfo-starPoints="5" bounding="rect(-169.87,-166.19,339.739,332.38)" text="" font-familyName="Helvetica" font-pixelSize="20" font-bold="0" font-underline="0" font-alignment="1" strokeStyle="0" markerStart="0" markerEnd="0" shadowEnabled="0" shadowOffsetX="0" shadowOffsetY="2" shadowBlur="4" shadowOpacity="160" blurEnabled="0" blurRadius="4" transform="matrix(1,0,0,1,316.376,225.737)" pers-center="0,0" pers-size="0,0" pers-start="0,0" pers-end="0,0" locked="0" mesh="" flag=""/>
            <path id="shapePath1" d="M146.506,225.737 C146.506,133.953 222.56,59.547 316.376,59.547 C410.192,59.547 486.245,133.953 486.245,225.737 C486.245,317.521 410.192,391.927 316.376,391.927 C222.559,391.927 146.506,317.521 146.506,225.737 Z" style="stroke:#323232;stroke-opacity:1;stroke-width:1;stroke-linejoin:miter;stroke-miterlimit:2;stroke-linecap:round;fill-rule:evenodd;fill:#cf0016;fill-opacity:1;"/>
        </g>
        <g id="Shape2">
            <desc shapeID="2" type="0" basicInfo-basicType="0" basicInfo-roundedRectRadius="12" basicInfo-polygonSides="6" basicInfo-starPoints="5" bounding="rect(0,0,0,0)" text="" font-familyName="Helvetica" font-pixelSize="20" font-bold="0" font-underline="0" font-alignment="1" strokeStyle="0" markerStart="0" markerEnd="0" shadowEnabled="0" shadowOffsetX="0" shadowOffsetY="2" shadowBlur="4" shadowOpacity="160" blurEnabled="0" blurRadius="4" transform="matrix(1,0,0,1,552.873,75.9244)" pers-center="0,0" pers-size="0,0" pers-start="0,0" pers-end="0,0" locked="0" mesh="" flag=""/>
            <path id="shapePath2" d="M552.873,75.9244 Z" style="stroke:#323232;stroke-opacity:1;stroke-width:0;stroke-linejoin:miter;stroke-miterlimit:2;stroke-linecap:round;fill-rule:evenodd;fill:#c89039;fill-opacity:1;"/>
        </g>
        <g id="Shape3">
            <desc shapeID="3" type="0" basicInfo-basicType="0" basicInfo-roundedRectRadius="12" basicInfo-polygonSides="6" basicInfo-starPoints="5" bounding="rect(-86.5745,-88.7524,173.149,177.505)" text="" font-familyName="Helvetica" font-pixelSize="20" font-bold="0" font-underline="0" font-alignment="1" strokeStyle="0" markerStart="0" markerEnd="0" shadowEnabled="0" shadowOffsetX="0" shadowOffsetY="2" shadowBlur="4" shadowOpacity="160" blurEnabled="0" blurRadius="4" transform="matrix(1,0,0,1,277.486,190.465)" pers-center="0,0" pers-size="0,0" pers-start="0,0" pers-end="0,0" locked="0" mesh="" flag=""/>
            <path id="shapePath3" d="M255.775,101.724 C243.021,101.31 235.629,112.286 225.634,118.468 C178.034,143.21 188.424,218.178 203.866,261.635 C212.474,268.514 223.152,273.49 233.169,279.217 C233.673,261.181 223.127,247.134 219.774,229.82 C219.983,217.215 217.011,202.261 228.146,198.006 C251.929,191.311 261.243,221.815 287.589,218.099 C299.161,205.964 307.058,193.623 316.893,185.447 C331.571,180.458 354.185,184.951 363.778,175.4 C364.976,164.957 362.405,155.085 355.405,149.446 C351.846,147.653 346.962,149.059 342.847,148.609 C300.82,172.474 298.378,105.642 260.798,104.235 C257.979,101.68 243.421,103.247 255.775,101.724 Z" style="stroke:#323232;stroke-opacity:1;stroke-width:0;stroke-linejoin:miter;stroke-miterlimit:2;stroke-linecap:round;fill-rule:evenodd;fill:#b60014;fill-opacity:1;"/>
        </g>
        <g id="Shape4">
            <desc shapeID="4" type="0" basicInfo-basicType="0" basicInfo-roundedRectRadius="12" basicInfo-polygonSides="6" basicInfo-starPoints="5" bounding="rect(-29.5892,-11.228,59.1783,22.456)" text="" font-familyName="Helvetica" font-pixelSize="20" font-bold="0" font-underline="0" font-alignment="1" strokeStyle="0" markerStart="0" markerEnd="0" shadowEnabled="0" shadowOffsetX="0" shadowOffsetY="2" shadowBlur="4" shadowOpacity="160" blurEnabled="0" blurRadius="4" transform="matrix(1,0,0,1,332.514,97.3797)" pers-center="0,0" pers-size="0,0" pers-start="0,0" pers-end="0,0" locked="0" mesh="" flag=""/>
            <path id="shapePath4" d="M303.497,103.398 C320.577,112.112 354.315,110.971 362.103,91.677 C345.17,88.9585 297.162,75.7716 303.497,103.398 Z" style="stroke:#323232;stroke-opacity:1;stroke-width:0;stroke-linejoin:miter;stroke-miterlimit:2;stroke-linecap:round;fill-rule:evenodd;fill:#b60014;fill-opacity:1;"/>
        </g>
        <g id="Shape5">
            <desc shapeID="5" type="0" basicInfo-basicType="0" basicInfo-roundedRectRadius="12" basicInfo-polygonSides="6" basicInfo-starPoints="5" bounding="rect(-118.652,-134.738,237.304,269.475)" text="" font-familyName="Helvetica" font-pixelSize="20" font-bold="0" font-underline="0" font-alignment="1" strokeStyle="0" markerStart="0" markerEnd="0" shadowEnabled="0" shadowOffsetX="0" shadowOffsetY="2" shadowBlur="4" shadowOpacity="160" blurEnabled="0" blurRadius="4" transform="matrix(1,0,0,1,364.778,234.643)" pers-center="0,0" pers-size="0,0" pers-start="0,0" pers-end="0,0" locked="0" mesh="" flag=""/>
            <path id="shapePath5" d="M438.28,112.919 C471.406,145.771 492.455,211.785 479.62,272.155 C463.724,328.745 395.319,362.124 342.586,353.304 C372.77,351.398 370.782,322.045 386.223,308.901 L386.223,302.777 C384.684,300.982 382.059,297.455 380.098,295.887 C354.048,294.762 372.179,258.793 349.476,254.547 C345.256,253.788 340.888,253.665 336.461,253.782 C321.008,272.587 284.521,283.721 294.356,317.323 C284.407,333.443 282.143,352.591 289.763,369.38 C273.536,365.11 258.969,354.142 246.126,345.648 C247.032,337.414 258.558,337.445 261.437,329.572 C243.692,283.542 305.311,274.923 305.839,233.112 C306.691,228.745 308.225,225.274 308.901,220.863 C311.272,217.547 313.29,213.92 317.323,211.676 C341.443,208.314 363.259,233.985 390.05,227.753 C405.822,217.788 400.042,202.059 391.581,189.475 C383.961,174.461 391.213,150.006 406.893,162.68 C411.332,159.969 419.381,158.851 422.969,154.259 L422.969,145.073 C410.284,130.439 423.061,114.208 427.563,99.905 C429.674,103.878 439.874,114.905 438.28,112.919 Z" style="stroke:#323232;stroke-opacity:1;stroke-width:0;stroke-linejoin:miter;stroke-miterlimit:2;stroke-linecap:round;fill-rule:evenodd;fill:#ff1b11;fill-opacity:1;"/>
        </g>
        <g id="Shape6">
            <desc shapeID="6" type="0" basicInfo-basicType="0" basicInfo-roundedRectRadius="12" basicInfo-polygonSides="6" basicInfo-starPoints="5" bounding="rect(-9.29297,-6.78694,18.5859,13.5739)" text="" font-familyName="Helvetica" font-pixelSize="20" font-bold="0" font-underline="0" font-alignment="1" strokeStyle="0" markerStart="0" markerEnd="0" shadowEnabled="0" shadowOffsetX="0" shadowOffsetY="2" shadowBlur="4" shadowOpacity="160" blurEnabled="0" blurRadius="4" transform="matrix(1,0,0,1,393.219,128.242)" pers-center="0,0" pers-size="0,0" pers-start="0,0" pers-end="0,0" locked="0" mesh="" flag=""/>
            <path id="shapePath6" d="M383.926,129.762 C384.981,138.666 407.404,136.056 401.534,123.637 C394.89,117.667 389.459,125.374 383.926,129.762 Z" style="stroke:#323232;stroke-opacity:1;stroke-width:0;stroke-linejoin:miter;stroke-miterlimit:2;stroke-linecap:round;fill-rule:evenodd;fill:#ff1b11;fill-opacity:1;"/>
        </g>
        <g id="Shape7">
            <desc shapeID="7" type="0" basicInfo-basicType="0" basicInfo-roundedRectRadius="12" basicInfo-polygonSides="6" basicInfo-starPoints="5" bounding="rect(-25.4034,-30.5832,50.8067,61.1663)" text="" font-familyName="Helvetica" font-pixelSize="20" font-bold="0" font-underline="0" font-alignment="1" strokeStyle="0" markerStart="0" markerEnd="0" shadowEnabled="0" shadowOffsetX="0" shadowOffsetY="2" shadowBlur="4" shadowOpacity="160" blurEnabled="0" blurRadius="4" transform="matrix(1,0,0,1,432.781,184.155)" pers-center="0,0" pers-size="0,0" pers-start="0,0" pers-end="0,0" locked="0" mesh="" flag=""/>
            <path id="shapePath7" d="M456.654,166.508 C455.192,143.569 426.805,155.156 425.266,170.336 C422.681,171.645 420.441,173.178 417.61,174.929 C397.78,178.03 412.192,203.323 416.079,214.738 C430.274,213.978 435.739,200.025 434.453,187.178 C441.007,179.67 457.386,174.554 458.185,161.915 L456.654,166.508 Z" style="stroke:#323232;stroke-opacity:1;stroke-width:0;stroke-linejoin:miter;stroke-miterlimit:2;stroke-linecap:round;fill-rule:evenodd;fill:#cf001a;fill-opacity:1;"/>
        </g>
        <g id="Shape8">
            <desc shapeID="8" type="0" basicInfo-basicType="0" basicInfo-roundedRectRadius="12" basicInfo-polygonSides="6" basicInfo-starPoints="5" bounding="rect(-28.8676,-35.643,57.7351,71.2861)" text="" font-familyName="Helvetica" font-pixelSize="20" font-bold="0" font-underline="0" font-alignment="1" strokeStyle="0" markerStart="0" markerEnd="0" shadowEnabled="0" shadowOffsetX="0" shadowOffsetY="2" shadowBlur="4" shadowOpacity="160" blurEnabled="0" blurRadius="4" transform="matrix(1,0,0,1,404.054,261.859)" pers-center="0,0" pers-size="0,0" pers-start="0,0" pers-end="0,0" locked="0" mesh="" flag=""/>
            <path id="shapePath8" d="M413.783,232.346 C402.981,231.759 398.301,241.181 392.347,248.423 C385.962,251.98 372.994,250.779 375.505,262.203 C388.44,266.401 396.215,281.468 400.768,295.887 C404.094,296.64 405.559,297.828 409.189,297.418 C425.487,286.576 413.525,275.259 410.72,262.203 C420.44,252.603 428.532,242.932 432.921,231.58 C427.635,216.268 407.27,239.327 413.783,232.346 Z" style="stroke:#323232;stroke-opacity:1;stroke-width:0;stroke-linejoin:miter;stroke-miterlimit:2;stroke-linecap:round;fill-rule:evenodd;fill:#fc0000;fill-opacity:1;"/>
        </g>
        <g id="Shape9">
            <desc shapeID="9" type="0" basicInfo-basicType="0" basicInfo-roundedRectRadius="12" basicInfo-polygonSides="6" basicInfo-starPoints="5" bounding="rect(-23.7322,-34.0646,47.4644,68.1292)" text="" font-familyName="Helvetica" font-pixelSize="20" font-bold="0" font-underline="0" font-alignment="1" strokeStyle="0" markerStart="0" markerEnd="0" shadowEnabled="0" shadowOffsetX="0" shadowOffsetY="2" shadowBlur="4" shadowOpacity="160" blurEnabled="0" blurRadius="4" transform="matrix(1,0,0,1,460.481,230.553)" pers-center="0,0" pers-size="0,0" pers-start="0,0" pers-end="0,0" locked="0" mesh="" flag=""/>
            <path id="shapePath9" d="M484.214,219.332 C474.099,215.772 476.911,190.296 456.654,197.896 C455.059,220.543 440.813,232.48 436.749,252.25 C448.892,264.344 472.546,236.932 472.73,262.968 C475.141,264.223 476.971,264.907 480.386,264.499 C485.231,252.686 480.207,224.776 484.214,219.332 Z" style="stroke:#323232;stroke-opacity:1;stroke-width:0;stroke-linejoin:miter;stroke-miterlimit:2;stroke-linecap:round;fill-rule:evenodd;fill:#ff4900;fill-opacity:1;"/>
        </g>
        <g id="Shape10">
            <desc shapeID="10" type="0" basicInfo-basicType="0" basicInfo-roundedRectRadius="12" basicInfo-polygonSides="6" basicInfo-starPoints="5" bounding="rect(-9.64402,-13.4361,19.288,26.8722)" text="" font-familyName="Helvetica" font-pixelSize="20" font-bold="0" font-underline="0" font-alignment="1" strokeStyle="0" markerStart="0" markerEnd="0" shadowEnabled="0" shadowOffsetX="0" shadowOffsetY="2" shadowBlur="4" shadowOpacity="160" blurEnabled="0" blurRadius="4" transform="matrix(1,0,0,1,446.902,288.653)" pers-center="0,0" pers-size="0,0" pers-start="0,0" pers-end="0,0" locked="0" mesh="" flag=""/>
            <path id="shapePath10" d="M455.888,275.217 C446.222,278.01 430.323,291.424 440.577,302.012 C456.528,303.347 457.751,287.191 455.888,275.217 Z" style="stroke:#323232;stroke-opacity:1;stroke-width:0;stroke-linejoin:miter;stroke-miterlimit:2;stroke-linecap:round;fill-rule:evenodd;fill:#ff4900;fill-opacity:1;"/>
        </g>
        <g id="Shape11">
            <desc shapeID="11" type="0" basicInfo-basicType="0" basicInfo-roundedRectRadius="12" basicInfo-polygonSides="6" basicInfo-starPoints="5" bounding="rect(-10.4728,-5.31779,20.9455,10.6356)" text="" font-familyName="Helvetica" font-pixelSize="20" font-bold="0" font-underline="0" font-alignment="1" strokeStyle="0" markerStart="0" markerEnd="0" shadowEnabled="0" shadowOffsetX="0" shadowOffsetY="2" shadowBlur="4" shadowOpacity="160" blurEnabled="0" blurRadius="4" transform="matrix(1,0,0,1,335.45,308.528)" pers-center="0,0" pers-size="0,0" pers-start="0,0" pers-end="0,0" locked="0" mesh="" flag=""/>
            <path id="shapePath11" d="M324.978,310.433 C328.807,313.668 350.929,318.071 344.883,305.074 C337.99,303.515 324.862,299.945 324.978,310.433 Z" style="stroke:#323232;stroke-opacity:1;stroke-width:0;stroke-linejoin:miter;stroke-miterlimit:2;stroke-linecap:round;fill-rule:evenodd;fill:#ff4900;fill-opacity:1;"/>
        </g>
    </g>
</svg>
