<?xml version="1.0"?>
<svg version="1.1" xmlns="http://www.w3.org/2000/svg" xmlns:xlink="http://www.w3.org/1999/xlink" width="640" height="480">
    <desc iVinci="yes" version="4.6" gridStep="20" showGrid="no" snapToGrid="no" codePlatform="0"/>
    <g id="Layer1" name="Layer 1" opacity="1">
        <g id="Shape1">
            <desc shapeID="1" type="0" basicInfo-basicType="4" basicInfo-roundedRectRadius="12" basicInfo-polygonSides="6" basicInfo-starPoints="5" bounding="rect(-111.5,-110.5,223,221)" text="" font-familyName="Helvetica" font-pixelSize="20" font-bold="0" font-underline="0" font-alignment="1" strokeStyle="0" markerStart="0" markerEnd="0" shadowEnabled="0" shadowOffsetX="0" shadowOffsetY="2" shadowBlur="4" shadowOpacity="160" blurEnabled="0" blurRadius="4" transform="matrix(1,0,0,1,253,247)" pers-center="0,0" pers-size="0,0" pers-start="0,0" pers-end="0,0" locked="0" mesh="" flag=""/>
            <path id="shapePath1" d="M141.5,247 C141.5,185.973 191.42,136.5 253,136.5 C314.58,136.5 364.5,185.973 364.5,247 C364.5,308.027 314.58,357.5 253,357.5 C191.42,357.5 141.5,308.027 141.5,247 Z" style="stroke:#323232;stroke-opacity:1;stroke-width:0;stroke-linejoin:miter;stroke-miterlimit:2;stroke-linecap:round;fill-rule:evenodd;fill:#af7e53;fill-opacity:1;"/>
        </g>
        <g id="Shape2">
            <desc shapeID="2" type="0" basicInfo-basicType="0" basicInfo-roundedRectRadius="12" basicInfo-polygonSides="6" basicInfo-starPoints="5" bounding="rect(-93.8141,-80.9526,187.628,161.905)" text="" font-familyName="Helvetica" font-pixelSize="20" font-bold="0" font-underline="0" font-alignment="1" strokeStyle="0" markerStart="0" markerEnd="0" shadowEnabled="0" shadowOffsetX="0" shadowOffsetY="2" shadowBlur="4" shadowOpacity="160" blurEnabled="0" blurRadius="4" transform="matrix(1,0,0,1,265.314,241.361)" pers-center="0,0" pers-size="0,0" pers-start="0,0" pers-end="0,0" locked="0" mesh="" flag=""/>
            <path id="shapePath2" d="M171.5,264.5 C203.335,299.434 245.129,336.987 305.5,316.5 C313.75,316.103 321.998,315.701 329.5,313.5 C332.261,288.896 297.22,300.146 301.5,273.5 C303.759,271.179 306.639,269.593 310.5,267.5 C322.883,245.202 364.729,278.427 358.5,244.5 C356.734,242.571 356.216,240.207 354.5,239.5 C351.843,216.964 317.1,222.985 317.5,197.5 C304.3,193.011 287.222,188.519 290.5,170.5 C289.072,167.598 289.411,164.515 286.5,162.5 C278.192,160.313 269.378,160.274 260.5,160.5 C247.373,175.238 252.563,208.709 262.5,225.5 C259.357,249.574 264.862,270.77 272.5,289.5 C269.462,292.399 265.646,293.742 262.5,294.5 C230.411,287.969 234.409,245.07 226.5,222.5 C220.741,216.727 207.691,222.869 202.5,228.5 C201.713,241.037 210.814,250.736 211.5,262.5 C200.506,264.106 172.162,255.213 171.5,264.5 Z" style="stroke:#323232;stroke-opacity:1;stroke-width:0;stroke-linejoin:miter;stroke-miterlimit:2;stroke-linecap:round;fill-rule:evenodd;fill:#e5b78d;fill-opacity:1;"/>
        </g>
        <g id="Shape3">
            <desc shapeID="3" type="0" basicInfo-basicType="0" basicInfo-roundedRectRadius="12" basicInfo-polygonSides="6" basicInfo-starPoints="5" bounding="rect(-94.0069,-78.9471,188.014,157.894)" text="" font-familyName="Helvetica" font-pixelSize="20" font-bold="0" font-underline="0" font-alignment="1" strokeStyle="0" markerStart="0" markerEnd="0" shadowEnabled="0" shadowOffsetX="0" shadowOffsetY="2" shadowBlur="4" shadowOpacity="160" blurEnabled="0" blurRadius="4" transform="matrix(1,0,0,1,239.609,218.553)" pers-center="0,0" pers-size="0,0" pers-start="0,0" pers-end="0,0" locked="0" mesh="" flag=""/>
            <path id="shapePath3" d="M156.5,297.5 C151.346,279.039 186.464,271.123 173.5,255.5 C173.144,252.923 174.884,252.563 176.5,250.5 C187.21,255.25 197.966,265.68 211.5,260.5 C205.004,247.848 194.24,213.668 222.5,215.5 C232.196,240.407 230.626,286.815 265.5,292.5 C283.616,268.141 249.36,234.63 259.5,204.5 C253.248,199.331 251.448,189.81 252.5,179.5 C258.161,167.809 264.421,154.919 278.5,153.5 C287.167,163.447 290.127,170.869 296.5,181.5 C306.42,185.387 320.407,182.788 332.5,183.5 C333.186,178.98 333.901,174.47 333.5,169.5 C322.73,163.296 311.513,153.669 295.5,151.5 C255.248,124.372 185.265,146.439 159.5,189.5 C140.298,222.809 142.644,265.446 156.5,297.5 Z" style="stroke:#323232;stroke-opacity:1;stroke-width:0;stroke-linejoin:miter;stroke-miterlimit:2;stroke-linecap:round;fill-rule:evenodd;fill:#aa7e60;fill-opacity:1;"/>
        </g>
        <g id="Shape4">
            <desc shapeID="4" type="0" basicInfo-basicType="0" basicInfo-roundedRectRadius="12" basicInfo-polygonSides="6" basicInfo-starPoints="5" bounding="rect(-69.9747,-74.6578,139.949,149.316)" text="" font-familyName="Helvetica" font-pixelSize="20" font-bold="0" font-underline="0" font-alignment="1" strokeStyle="0" markerStart="0" markerEnd="0" shadowEnabled="0" shadowOffsetX="0" shadowOffsetY="2" shadowBlur="4" shadowOpacity="160" blurEnabled="0" blurRadius="4" transform="matrix(1,0,0,1,241.525,221.842)" pers-center="0,0" pers-size="0,0" pers-start="0,0" pers-end="0,0" locked="0" mesh="" flag=""/>
            <path id="shapePath4" d="M175.5,269.5 C169.022,257.264 170.621,243.881 179.5,232.5 C179.567,222.146 172.697,210.76 179.5,201.5 C186.725,190.992 199.636,188.76 212.5,189.5 C214.585,188.414 214.401,184.475 216.5,184.5 C211.547,170.747 220.344,159.528 234.5,159.5 C246.614,139.424 303.978,144.22 303.5,171.5 C306.348,175.695 310.709,177.071 311.5,182.5 C306.774,184.106 302.94,186.608 295.5,185.5 C292.898,180.642 292.79,173.942 291.5,168.5 C285.943,162.129 274.774,159.989 263.5,160.5 C233.379,195.67 277.056,239.531 271.5,286.5 C267.835,289.584 264.113,293.754 260.5,296.5 C231.398,289.382 233.355,244.946 222.5,222.5 L213.5,222.5 C197.313,227.499 208.073,249.196 209.5,262.5 C196.562,264.657 174.257,248.268 175.5,269.5 Z" style="stroke:#323232;stroke-opacity:1;stroke-width:0;stroke-linejoin:miter;stroke-miterlimit:2;stroke-linecap:round;fill-rule:evenodd;fill:#967153;fill-opacity:1;"/>
        </g>
        <g id="Shape5">
            <desc shapeID="5" type="0" basicInfo-basicType="0" basicInfo-roundedRectRadius="12" basicInfo-polygonSides="6" basicInfo-starPoints="5" bounding="rect(-37.0553,-41.0871,74.1107,82.1742)" text="" font-familyName="Helvetica" font-pixelSize="20" font-bold="0" font-underline="0" font-alignment="1" strokeStyle="0" markerStart="0" markerEnd="0" shadowEnabled="0" shadowOffsetX="0" shadowOffsetY="2" shadowBlur="4" shadowOpacity="160" blurEnabled="0" blurRadius="4" transform="matrix(1,0,0,1,326.445,216.587)" pers-center="0,0" pers-size="0,0" pers-start="0,0" pers-end="0,0" locked="0" mesh="" flag=""/>
            <path id="shapePath5" d="M363.5,240.5 C341.589,237.709 342.919,259.844 322.5,257.5 C318.642,253.416 318.076,244.175 318.5,236.5 C314.116,233.419 309.181,229.214 310.5,221.5 C304.202,221.015 297.409,222.633 291.5,220.5 C289.161,217.526 289.278,213.535 289.5,209.5 C300.137,203.338 310.658,213.502 323.5,212.5 L323.5,206.5 C309.037,195.093 336.939,188.549 334.5,175.5 C349.896,189.024 363.189,217.145 363.5,240.5 Z" style="stroke:#323232;stroke-opacity:1;stroke-width:0;stroke-linejoin:miter;stroke-miterlimit:2;stroke-linecap:round;fill-rule:evenodd;fill:#c48e67;fill-opacity:1;"/>
        </g>
        <g id="Shape6">
            <desc shapeID="6" type="0" basicInfo-basicType="0" basicInfo-roundedRectRadius="12" basicInfo-polygonSides="6" basicInfo-starPoints="5" bounding="rect(-34.0309,-30.0575,68.0618,60.115)" text="" font-familyName="Helvetica" font-pixelSize="20" font-bold="0" font-underline="0" font-alignment="1" strokeStyle="0" markerStart="0" markerEnd="0" shadowEnabled="0" shadowOffsetX="0" shadowOffsetY="2" shadowBlur="4" shadowOpacity="160" blurEnabled="0" blurRadius="4" transform="matrix(1,0,0,1,325.531,284.443)" pers-center="0,0" pers-size="0,0" pers-start="0,0" pers-end="0,0" locked="0" mesh="" flag=""/>
            <path id="shapePath6" d="M337.5,314.5 C343.257,297.384 360.73,288.101 359.5,266.5 C338.812,255.435 315.828,276.46 301.5,256.5 C297.999,255.284 295.892,253.988 291.5,254.5 C295.706,267.47 306.239,275.95 302.5,293.5 C321.475,278.029 331.625,302.148 337.5,314.5 Z" style="stroke:#323232;stroke-opacity:1;stroke-width:0;stroke-linejoin:miter;stroke-miterlimit:2;stroke-linecap:round;fill-rule:evenodd;fill:#a77e5f;fill-opacity:1;"/>
        </g>
        <g id="Shape7">
            <desc shapeID="7" type="0" basicInfo-basicType="0" basicInfo-roundedRectRadius="12" basicInfo-polygonSides="6" basicInfo-starPoints="5" bounding="rect(-20,-43,40,86)" text="" font-familyName="Helvetica" font-pixelSize="20" font-bold="0" font-underline="0" font-alignment="1" strokeStyle="0" markerStart="0" markerEnd="0" shadowEnabled="0" shadowOffsetX="0" shadowOffsetY="2" shadowBlur="4" shadowOpacity="160" blurEnabled="0" blurRadius="4" transform="matrix(1,0,0,1,259.5,231.5)" pers-center="0,0" pers-size="0,0" pers-start="0,0" pers-end="0,0" locked="0" mesh="" flag=""/>
            <path id="shapePath7" d="M253.5,188.5 C251.884,198.802 248.208,204.903 239.5,208.5 C243.807,217.485 264.252,224.452 251.5,240.5 C249.954,243.215 258.106,244.656 257.5,250.5 C254.329,254.153 250.14,257.385 250.5,262.5 C260.028,267.567 268.939,272.666 279.5,274.5 " style="stroke:#323232;stroke-opacity:1;stroke-width:0;stroke-linejoin:miter;stroke-miterlimit:2;stroke-linecap:round;fill-rule:evenodd;fill:#e5b78d;fill-opacity:1;"/>
        </g>
    </g>
</svg>
