<?xml version="1.0"?>
<svg version="1.1" xmlns="http://www.w3.org/2000/svg" xmlns:xlink="http://www.w3.org/1999/xlink" width="640" height="480">
    <desc iVinci="yes" version="4.6" gridStep="20" showGrid="no" snapToGrid="no" codePlatform="0"/>
    <g id="Layer1" name="Layer 1" opacity="1">
        <g id="Shape1">
            <desc shapeID="1" type="0" basicInfo-basicType="4" basicInfo-roundedRectRadius="12" basicInfo-polygonSides="6" basicInfo-starPoints="5" bounding="rect(-169.87,-166.19,339.739,332.38)" text="" font-familyName="Helvetica" font-pixelSize="20" font-bold="0" font-underline="0" font-alignment="1" strokeStyle="0" markerStart="0" markerEnd="0" shadowEnabled="0" shadowOffsetX="0" shadowOffsetY="2" shadowBlur="4" shadowOpacity="160" blurEnabled="0" blurRadius="4" transform="matrix(1,0,0,1,319.908,228.857)" pers-center="0,0" pers-size="0,0" pers-start="0,0" pers-end="0,0" locked="0" mesh="" flag=""/>
            <path id="shapePath1" d="M150.038,228.857 C150.038,137.073 226.091,62.6667 319.908,62.6667 C413.724,62.6667 489.777,137.073 489.777,228.857 C489.777,320.641 413.724,395.047 319.908,395.047 C226.091,395.047 150.038,320.641 150.038,228.857 Z" style="stroke:#323232;stroke-opacity:1;stroke-width:1;stroke-linejoin:miter;stroke-miterlimit:2;stroke-linecap:round;fill-rule:evenodd;fill:#856341;fill-opacity:1;"/>
        </g>
        <g id="Shape2">
            <desc shapeID="2" type="0" basicInfo-basicType="0" basicInfo-roundedRectRadius="12" basicInfo-polygonSides="6" basicInfo-starPoints="5" bounding="rect(0,0,0,0)" text="" font-familyName="Helvetica" font-pixelSize="20" font-bold="0" font-underline="0" font-alignment="1" strokeStyle="0" markerStart="0" markerEnd="0" shadowEnabled="0" shadowOffsetX="0" shadowOffsetY="2" shadowBlur="4" shadowOpacity="160" blurEnabled="0" blurRadius="4" transform="matrix(1,0,0,1,569.888,51.1751)" pers-center="0,0" pers-size="0,0" pers-start="0,0" pers-end="0,0" locked="0" mesh="" flag=""/>
            <path id="shapePath2" d="M569.888,51.1751 Z" style="stroke:#323232;stroke-opacity:1;stroke-width:0;stroke-linejoin:miter;stroke-miterlimit:2;stroke-linecap:round;fill-rule:evenodd;fill:#c89039;fill-opacity:1;"/>
        </g>
        <g id="Shape3">
            <desc shapeID="3" type="0" basicInfo-basicType="4" basicInfo-roundedRectRadius="12" basicInfo-polygonSides="6" basicInfo-starPoints="5" bounding="rect(-123.256,-117.653,246.511,235.306)" text="" font-familyName="Helvetica" font-pixelSize="20" font-bold="0" font-underline="0" font-alignment="1" strokeStyle="0" markerStart="0" markerEnd="0" shadowEnabled="0" shadowOffsetX="0" shadowOffsetY="2" shadowBlur="4" shadowOpacity="160" blurEnabled="0" blurRadius="4" transform="matrix(0.685091,1.05269,-1.07029,0.696546,338.147,221.267)" pers-center="0,0" pers-size="0,0" pers-start="0,0" pers-end="0,0" locked="0" mesh="" flag=""/>
            <path id="shapePath3" d="M253.706,91.5173 C323.251,46.2571 417.435,67.6576 464.07,139.317 C510.706,210.976 492.134,305.757 422.588,351.017 C353.043,396.278 258.859,374.877 212.224,303.218 C165.588,231.559 184.16,136.778 253.706,91.5173 Z" style="stroke:#323232;stroke-opacity:1;stroke-width:0;stroke-linejoin:miter;stroke-miterlimit:2;stroke-linecap:round;fill-rule:evenodd;fill:#ab8750;fill-opacity:1;"/>
        </g>
        <g id="Shape4">
            <desc shapeID="4" type="0" basicInfo-basicType="0" basicInfo-roundedRectRadius="12" basicInfo-polygonSides="6" basicInfo-starPoints="5" bounding="rect(-153.306,-156.035,306.612,312.071)" text="" font-familyName="Helvetica" font-pixelSize="20" font-bold="0" font-underline="0" font-alignment="1" strokeStyle="0" markerStart="0" markerEnd="0" shadowEnabled="0" shadowOffsetX="0" shadowOffsetY="2" shadowBlur="4" shadowOpacity="160" blurEnabled="0" blurRadius="4" transform="matrix(1,0,0,1,325.279,221.668)" pers-center="0,0" pers-size="0,0" pers-start="0,0" pers-end="0,0" locked="0" mesh="" flag=""/>
            <path id="shapePath4" d="M351.328,67.4689 C282.439,57.9594 215.634,86.1691 182.452,133.899 C173.238,158.32 166.805,188.013 177.649,214.735 C172.085,265.255 201.127,295.756 221.669,329.988 C242.558,347.067 274.422,366.521 308.108,366.004 C331.005,378.71 360.327,378.295 388.145,377.209 C444.596,362.702 471.848,308.283 478.585,241.948 " style="stroke:#323232;stroke-opacity:1;stroke-width:0;stroke-linejoin:miter;stroke-miterlimit:2;stroke-linecap:round;fill-rule:evenodd;fill:#ab8750;fill-opacity:1;"/>
        </g>
        <g id="Shape5">
            <desc shapeID="5" type="0" basicInfo-basicType="0" basicInfo-roundedRectRadius="12" basicInfo-polygonSides="6" basicInfo-starPoints="5" bounding="rect(-6.98342,-64.4291,13.9668,128.858)" text="" font-familyName="Helvetica" font-pixelSize="20" font-bold="0" font-underline="0" font-alignment="1" strokeStyle="0" markerStart="0" markerEnd="0" shadowEnabled="0" shadowOffsetX="0" shadowOffsetY="2" shadowBlur="4" shadowOpacity="160" blurEnabled="0" blurRadius="4" transform="matrix(1,0,0,1,181.071,201.53)" pers-center="0,0" pers-size="0,0" pers-start="0,0" pers-end="0,0" locked="0" mesh="" flag=""/>
            <path id="shapePath5" d="M181.651,137.1 C168.201,180.248 174.15,227.506 188.054,265.959 " style="stroke:#323232;stroke-opacity:1;stroke-width:0;stroke-linejoin:miter;stroke-miterlimit:2;stroke-linecap:round;fill-rule:evenodd;fill:#ab8750;fill-opacity:1;"/>
        </g>
        <g id="Shape6">
            <desc shapeID="6" type="0" basicInfo-basicType="0" basicInfo-roundedRectRadius="12" basicInfo-polygonSides="6" basicInfo-starPoints="5" bounding="rect(-0.615555,-9.76295,1.2311,19.5259)" text="" font-familyName="Helvetica" font-pixelSize="20" font-bold="0" font-underline="0" font-alignment="1" strokeStyle="0" markerStart="0" markerEnd="0" shadowEnabled="0" shadowOffsetX="0" shadowOffsetY="2" shadowBlur="4" shadowOpacity="160" blurEnabled="0" blurRadius="4" transform="matrix(1,0,0,1,173.715,177.459)" pers-center="0,0" pers-size="0,0" pers-start="0,0" pers-end="0,0" locked="0" mesh="" flag=""/>
            <path id="shapePath6" d="M174.265,167.696 C174.527,174.346 173.975,180.902 173.099,187.222 " style="stroke:#323232;stroke-opacity:1;stroke-width:0;stroke-linejoin:miter;stroke-miterlimit:2;stroke-linecap:round;fill-rule:evenodd;fill:#ab8750;fill-opacity:1;"/>
        </g>
        <g id="Shape7">
            <desc shapeID="7" type="0" basicInfo-basicType="0" basicInfo-roundedRectRadius="12" basicInfo-polygonSides="6" basicInfo-starPoints="5" bounding="rect(-4.64637,-42.6947,9.29275,85.3894)" text="" font-familyName="Helvetica" font-pixelSize="20" font-bold="0" font-underline="0" font-alignment="1" strokeStyle="0" markerStart="0" markerEnd="0" shadowEnabled="0" shadowOffsetX="0" shadowOffsetY="2" shadowBlur="4" shadowOpacity="160" blurEnabled="0" blurRadius="4" transform="matrix(1,0,0,1,177.196,213.014)" pers-center="0,0" pers-size="0,0" pers-start="0,0" pers-end="0,0" locked="0" mesh="" flag=""/>
            <path id="shapePath7" d="M173.682,170.319 C170.755,199.556 173.509,230.699 181.842,255.709 " style="stroke:#323232;stroke-opacity:1;stroke-width:0;stroke-linejoin:miter;stroke-miterlimit:2;stroke-linecap:round;fill-rule:evenodd;fill:#ab8750;fill-opacity:1;"/>
        </g>
        <g id="Shape8">
            <desc shapeID="8" type="0" basicInfo-basicType="0" basicInfo-roundedRectRadius="12" basicInfo-polygonSides="6" basicInfo-starPoints="5" bounding="rect(-20.5459,-31.1832,41.0918,62.3663)" text="" font-familyName="Helvetica" font-pixelSize="20" font-bold="0" font-underline="0" font-alignment="1" strokeStyle="0" markerStart="0" markerEnd="0" shadowEnabled="0" shadowOffsetX="0" shadowOffsetY="2" shadowBlur="4" shadowOpacity="160" blurEnabled="0" blurRadius="4" transform="matrix(1,0,0,1,207.342,303.212)" pers-center="0,0" pers-size="0,0" pers-start="0,0" pers-end="0,0" locked="0" mesh="" flag=""/>
            <path id="shapePath8" d="M186.796,272.029 C196.14,295.281 210.599,319.287 227.888,334.395 " style="stroke:#323232;stroke-opacity:1;stroke-width:0;stroke-linejoin:miter;stroke-miterlimit:2;stroke-linecap:round;fill-rule:evenodd;fill:#ab8750;fill-opacity:1;"/>
        </g>
        <g id="Shape9">
            <desc shapeID="9" type="0" basicInfo-basicType="0" basicInfo-roundedRectRadius="12" basicInfo-polygonSides="6" basicInfo-starPoints="5" bounding="rect(-17.6671,-38.9635,35.3341,77.9269)" text="" font-familyName="Helvetica" font-pixelSize="20" font-bold="0" font-underline="0" font-alignment="1" strokeStyle="0" markerStart="0" markerEnd="0" shadowEnabled="0" shadowOffsetX="0" shadowOffsetY="2" shadowBlur="4" shadowOpacity="160" blurEnabled="0" blurRadius="4" transform="matrix(1,0,0,1,460.026,302.573)" pers-center="0,0" pers-size="0,0" pers-start="0,0" pers-end="0,0" locked="0" mesh="" flag=""/>
            <path id="shapePath9" d="M442.359,341.536 C461.293,321.54 479.342,294.619 477.573,263.609 " style="stroke:#323232;stroke-opacity:1;stroke-width:0;stroke-linejoin:miter;stroke-miterlimit:2;stroke-linecap:round;fill-rule:evenodd;fill:#ab8750;fill-opacity:1;"/>
        </g>
        <g id="Shape10">
            <desc shapeID="10" type="0" basicInfo-basicType="0" basicInfo-roundedRectRadius="12" basicInfo-polygonSides="6" basicInfo-starPoints="5" bounding="rect(-20.4599,-44.4249,40.9198,88.8498)" text="" font-familyName="Helvetica" font-pixelSize="20" font-bold="0" font-underline="0" font-alignment="1" strokeStyle="0" markerStart="0" markerEnd="0" shadowEnabled="0" shadowOffsetX="0" shadowOffsetY="2" shadowBlur="4" shadowOpacity="160" blurEnabled="0" blurRadius="4" transform="matrix(1,0,0,1,464.612,295.644)" pers-center="0,0" pers-size="0,0" pers-start="0,0" pers-end="0,0" locked="0" mesh="" flag=""/>
            <path id="shapePath10" d="M444.152,340.069 C466.021,316.497 482.512,285.455 485.072,251.219 " style="stroke:#323232;stroke-opacity:1;stroke-width:0;stroke-linejoin:miter;stroke-miterlimit:2;stroke-linecap:round;fill-rule:evenodd;fill:#ab8750;fill-opacity:1;"/>
        </g>
        <g id="Shape11">
            <desc shapeID="11" type="0" basicInfo-basicType="0" basicInfo-roundedRectRadius="12" basicInfo-polygonSides="6" basicInfo-starPoints="5" bounding="rect(-21.8456,-42.9576,43.6913,85.9153)" text="" font-familyName="Helvetica" font-pixelSize="20" font-bold="0" font-underline="0" font-alignment="1" strokeStyle="0" markerStart="0" markerEnd="0" shadowEnabled="0" shadowOffsetX="0" shadowOffsetY="2" shadowBlur="4" shadowOpacity="160" blurEnabled="0" blurRadius="4" transform="matrix(1,0,0,1,462.9,302.002)" pers-center="0,0" pers-size="0,0" pers-start="0,0" pers-end="0,0" locked="0" mesh="" flag=""/>
            <path id="shapePath11" d="M441.054,344.96 C461.524,320.888 481.682,292.43 484.746,259.044 " style="stroke:#323232;stroke-opacity:1;stroke-width:0;stroke-linejoin:miter;stroke-miterlimit:2;stroke-linecap:round;fill-rule:evenodd;fill:#ab8750;fill-opacity:1;"/>
        </g>
        <g id="Shape12">
            <desc shapeID="12" type="0" basicInfo-basicType="4" basicInfo-roundedRectRadius="12" basicInfo-polygonSides="6" basicInfo-starPoints="5" bounding="rect(-151.801,-143.102,303.602,286.203)" text="" font-familyName="Helvetica" font-pixelSize="20" font-bold="0" font-underline="0" font-alignment="1" strokeStyle="0" markerStart="0" markerEnd="0" shadowEnabled="0" shadowOffsetX="0" shadowOffsetY="2" shadowBlur="4" shadowOpacity="160" blurEnabled="0" blurRadius="4" transform="matrix(0.834572,0.550898,-0.550898,0.834572,336.854,213.421)" pers-center="0,0" pers-size="0,0" pers-start="0,0" pers-end="0,0" locked="0" mesh="" flag=""/>
            <path id="shapePath12" d="M210.165,129.794 C253.704,63.8355 345.72,47.8065 415.689,93.9923 C485.657,140.178 507.082,231.089 463.543,297.048 C420.004,363.006 327.988,379.035 258.02,332.85 C188.051,286.664 166.626,195.753 210.165,129.794 Z" style="stroke:#323232;stroke-opacity:1;stroke-width:0;stroke-linejoin:miter;stroke-miterlimit:2;stroke-linecap:round;fill-rule:evenodd;fill:#9a7147;fill-opacity:1;"/>
        </g>
        <g id="Shape13">
            <desc shapeID="13" type="0" basicInfo-basicType="0" basicInfo-roundedRectRadius="12" basicInfo-polygonSides="6" basicInfo-starPoints="5" bounding="rect(-119.986,-120.893,239.972,241.786)" text="" font-familyName="Helvetica" font-pixelSize="20" font-bold="0" font-underline="0" font-alignment="1" strokeStyle="0" markerStart="0" markerEnd="0" shadowEnabled="0" shadowOffsetX="0" shadowOffsetY="2" shadowBlur="4" shadowOpacity="160" blurEnabled="0" blurRadius="4" transform="matrix(1,0,0,1,289.824,257.609)" pers-center="0,0" pers-size="0,0" pers-start="0,0" pers-end="0,0" locked="0" mesh="" flag=""/>
            <path id="shapePath13" d="M180.114,136.716 C180.114,136.716 172.86,158.477 172.86,158.477 C172.86,158.477 169.838,187.491 169.838,187.491 C169.838,187.491 171.651,220.737 171.651,220.737 C171.651,220.737 177.696,255.795 177.696,255.795 C177.696,255.795 184.949,276.952 184.949,276.952 C184.949,276.952 200.061,302.339 200.061,302.339 C200.061,302.339 219.404,326.518 219.404,326.518 C219.404,326.518 244.791,347.674 244.791,347.674 C244.791,347.674 275.014,359.159 275.014,359.159 C275.014,359.159 297.984,367.621 297.984,367.621 C297.984,367.621 325.185,373.666 325.185,373.666 C325.185,373.666 353.595,377.293 353.595,377.293 C353.595,377.293 381.4,378.502 381.4,378.502 C381.4,378.502 400.139,373.666 400.139,373.666 C400.139,373.666 409.81,366.412 409.81,366.412 C409.81,366.412 409.81,356.137 409.81,356.137 C409.81,356.137 378.982,365.808 378.982,365.808 C378.982,365.808 341.506,367.621 341.506,367.621 C341.506,367.621 301.006,359.763 301.006,359.763 C301.006,359.763 239.351,328.331 239.351,328.331 C239.351,328.331 196.434,271.512 196.434,271.512 C196.434,271.512 178.905,205.02 178.905,205.02 C178.905,205.02 180.114,136.716 180.114,136.716 Z" style="stroke:#323232;stroke-opacity:1;stroke-width:0;stroke-linejoin:miter;stroke-miterlimit:2;stroke-linecap:round;fill-rule:evenodd;fill:#ab8750;fill-opacity:1;"/>
        </g>
        <g id="Shape14">
            <desc shapeID="14" type="0" basicInfo-basicType="0" basicInfo-roundedRectRadius="12" basicInfo-polygonSides="6" basicInfo-starPoints="5" bounding="rect(-99.1583,-82.7415,198.317,165.483)" text="" font-familyName="Helvetica" font-pixelSize="20" font-bold="0" font-underline="0" font-alignment="1" strokeStyle="0" markerStart="0" markerEnd="0" shadowEnabled="0" shadowOffsetX="0" shadowOffsetY="2" shadowBlur="4" shadowOpacity="160" blurEnabled="0" blurRadius="4" transform="matrix(1,0,0,1,289.496,147.062)" pers-center="0,0" pers-size="0,0" pers-start="0,0" pers-end="0,0" locked="0" mesh="" flag=""/>
            <path id="shapePath14" d="M388.654,77.4785 L378.378,77.4785 C304.286,42.2651 186.982,78.4696 193.412,177.215 C191.926,194.056 187.657,213.977 192.807,229.803 " style="stroke:#323232;stroke-opacity:1;stroke-width:0;stroke-linejoin:miter;stroke-miterlimit:2;stroke-linecap:round;fill-rule:evenodd;fill:#9a7147;fill-opacity:1;"/>
        </g>
        <g id="Shape15">
            <desc shapeID="15" type="0" basicInfo-basicType="0" basicInfo-roundedRectRadius="12" basicInfo-polygonSides="6" basicInfo-starPoints="5" bounding="rect(-23.9845,-69.5134,47.9689,139.027)" text="" font-familyName="Helvetica" font-pixelSize="20" font-bold="0" font-underline="0" font-alignment="1" strokeStyle="0" markerStart="0" markerEnd="0" shadowEnabled="0" shadowOffsetX="0" shadowOffsetY="2" shadowBlur="4" shadowOpacity="160" blurEnabled="0" blurRadius="4" transform="matrix(1,0,0,1,213.553,159.081)" pers-center="0,0" pers-size="0,0" pers-start="0,0" pers-end="0,0" locked="0" mesh="" flag=""/>
            <path id="shapePath15" d="M237.538,89.5678 C191.707,118.57 182.633,177.286 194.016,228.595 " style="stroke:#323232;stroke-opacity:1;stroke-width:0;stroke-linejoin:miter;stroke-miterlimit:2;stroke-linecap:round;fill-rule:evenodd;fill:#9a7147;fill-opacity:1;"/>
        </g>
        <g id="Shape16">
            <desc shapeID="16" type="0" basicInfo-basicType="4" basicInfo-roundedRectRadius="12" basicInfo-polygonSides="6" basicInfo-starPoints="5" bounding="rect(-117.871,-115.755,235.741,231.51)" text="" font-familyName="Helvetica" font-pixelSize="20" font-bold="0" font-underline="0" font-alignment="1" strokeStyle="0" markerStart="0" markerEnd="0" shadowEnabled="0" shadowOffsetX="0" shadowOffsetY="2" shadowBlur="4" shadowOpacity="160" blurEnabled="0" blurRadius="4" transform="matrix(1.1067,0.589364,-0.532636,1.00017,338.181,200.185)" pers-center="0,0" pers-size="0,0" pers-start="0,0" pers-end="0,0" locked="0" mesh="" flag=""/>
            <path id="shapePath16" d="M207.734,130.716 C241.785,66.7753 327.792,46.0432 399.836,84.4097 C471.88,122.776 502.68,205.713 468.628,269.653 C434.577,333.594 348.57,354.326 276.526,315.96 C204.482,277.593 173.683,194.657 207.734,130.716 Z" style="stroke:#323232;stroke-opacity:1;stroke-width:0;stroke-linejoin:miter;stroke-miterlimit:2;stroke-linecap:round;fill-rule:evenodd;fill:#ab8651;fill-opacity:1;"/>
        </g>
        <g id="Shape17">
            <desc shapeID="17" type="0" basicInfo-basicType="4" basicInfo-roundedRectRadius="12" basicInfo-polygonSides="6" basicInfo-starPoints="5" bounding="rect(-102.596,-110.243,205.192,220.486)" text="" font-familyName="Helvetica" font-pixelSize="20" font-bold="0" font-underline="0" font-alignment="1" strokeStyle="0" markerStart="0" markerEnd="0" shadowEnabled="0" shadowOffsetX="0" shadowOffsetY="2" shadowBlur="4" shadowOpacity="160" blurEnabled="0" blurRadius="4" transform="matrix(1.21688,0.364119,-0.30655,1.02448,339.917,184.661)" pers-center="0,0" pers-size="0,0" pers-start="0,0" pers-end="0,0" locked="0" mesh="" flag=""/>
            <path id="shapePath17" d="M215.07,147.304 C233.735,84.9281 304.761,51.0876 373.712,71.7193 C442.663,92.351 483.428,159.642 464.764,222.018 C446.099,284.394 375.073,318.235 306.122,297.603 C237.171,276.971 196.406,209.68 215.07,147.304 Z" style="stroke:#323232;stroke-opacity:1;stroke-width:0;stroke-linejoin:miter;stroke-miterlimit:2;stroke-linecap:round;fill-rule:evenodd;fill:#cea26f;fill-opacity:1;"/>
        </g>
        <g id="Shape18">
            <desc shapeID="18" type="0" basicInfo-basicType="0" basicInfo-roundedRectRadius="12" basicInfo-polygonSides="6" basicInfo-starPoints="5" bounding="rect(-26.7896,-20.6731,53.5793,41.3461)" text="" font-familyName="Helvetica" font-pixelSize="20" font-bold="0" font-underline="0" font-alignment="1" strokeStyle="0" markerStart="0" markerEnd="0" shadowEnabled="0" shadowOffsetX="0" shadowOffsetY="2" shadowBlur="4" shadowOpacity="160" blurEnabled="0" blurRadius="4" transform="matrix(1,0,0,1,258.006,107.836)" pers-center="0,0" pers-size="0,0" pers-start="0,0" pers-end="0,0" locked="0" mesh="" flag=""/>
            <path id="shapePath18" d="M235.728,87.1633 C212.787,154.074 284.796,119.663 284.796,119.663 C284.796,119.663 235.728,87.1633 235.728,87.1633 Z" style="stroke:#323232;stroke-opacity:1;stroke-width:0;stroke-linejoin:miter;stroke-miterlimit:2;stroke-linecap:round;fill-rule:evenodd;fill:#cea26f;fill-opacity:1;"/>
        </g>
        <g id="Shape19">
            <desc shapeID="19" type="0" basicInfo-basicType="0" basicInfo-roundedRectRadius="12" basicInfo-polygonSides="6" basicInfo-starPoints="5" bounding="rect(-53.2097,-48.4304,106.419,96.8607)" text="" font-familyName="Helvetica" font-pixelSize="20" font-bold="0" font-underline="0" font-alignment="1" strokeStyle="0" markerStart="0" markerEnd="0" shadowEnabled="0" shadowOffsetX="0" shadowOffsetY="2" shadowBlur="4" shadowOpacity="160" blurEnabled="0" blurRadius="4" transform="matrix(1,0,0,1,264.722,135.594)" pers-center="0,0" pers-size="0,0" pers-start="0,0" pers-end="0,0" locked="0" mesh="" flag=""/>
            <path id="shapePath19" d="M235.728,87.1633 C235.728,87.1633 224.258,103.732 224.258,103.732 C224.258,103.732 219.16,118.388 219.16,118.388 C219.16,118.388 214.062,131.133 214.062,131.133 C214.062,131.133 212.15,147.064 212.15,147.064 C212.15,147.064 211.513,164.27 211.513,164.27 C211.513,164.27 222.983,184.024 222.983,184.024 C222.983,184.024 317.932,148.339 317.932,148.339 C317.932,148.339 235.728,87.1633 235.728,87.1633 Z" style="stroke:#323232;stroke-opacity:1;stroke-width:0;stroke-linejoin:miter;stroke-miterlimit:2;stroke-linecap:round;fill-rule:evenodd;fill:#cea26f;fill-opacity:1;"/>
        </g>
        <g id="Shape20">
            <desc shapeID="20" type="0" basicInfo-basicType="0" basicInfo-roundedRectRadius="12" basicInfo-polygonSides="6" basicInfo-starPoints="5" bounding="rect(-97.0599,-110.844,194.12,221.687)" text="" font-familyName="Helvetica" font-pixelSize="20" font-bold="0" font-underline="0" font-alignment="1" strokeStyle="0" markerStart="0" markerEnd="0" shadowEnabled="0" shadowOffsetX="0" shadowOffsetY="2" shadowBlur="4" shadowOpacity="160" blurEnabled="0" blurRadius="4" transform="matrix(1,0,0,1,304.988,175.72)" pers-center="0,0" pers-size="0,0" pers-start="0,0" pers-end="0,0" locked="0" mesh="" flag=""/>
            <path id="shapePath20" d="M345.333,68.6833 C303.563,57.7477 258.896,71.71 228.718,93.5357 C207.852,124.599 199.291,182.329 219.16,220.347 C230.109,232.275 242.234,247.842 258.669,259.219 C303.927,270.25 358.36,295.332 402.048,283.434 C397.623,267.36 388.969,252.777 384.536,236.632 L358.932,171.318 C350.088,150.391 341.692,129.18 337.049,106.918 C345.021,95.9555 342.952,79.4271 345.333,68.6833 Z" style="stroke:#323232;stroke-opacity:1;stroke-width:0;stroke-linejoin:miter;stroke-miterlimit:2;stroke-linecap:round;fill-rule:evenodd;fill:#cea26f;fill-opacity:1;"/>
        </g>
        <g id="Shape21">
            <desc shapeID="21" type="0" basicInfo-basicType="0" basicInfo-roundedRectRadius="12" basicInfo-polygonSides="6" basicInfo-starPoints="5" bounding="rect(-67.8662,-95.9196,135.732,191.839)" text="" font-familyName="Helvetica" font-pixelSize="20" font-bold="0" font-underline="0" font-alignment="1" strokeStyle="0" markerStart="0" markerEnd="0" shadowEnabled="0" shadowOffsetX="0" shadowOffsetY="2" shadowBlur="4" shadowOpacity="160" blurEnabled="0" blurRadius="4" transform="matrix(1,0,0,1,422.758,207.298)" pers-center="0,0" pers-size="0,0" pers-start="0,0" pers-end="0,0" locked="0" mesh="" flag=""/>
            <path id="shapePath21" d="M354.892,303.188 C410.627,304.155 477.873,281.333 490.625,227.356 C484.565,182.925 467.448,138.954 436.459,111.378 " style="stroke:#323232;stroke-opacity:1;stroke-width:0;stroke-linejoin:miter;stroke-miterlimit:2;stroke-linecap:round;fill-rule:evenodd;fill:#cea26f;fill-opacity:1;"/>
        </g>
        <g id="Shape22">
            <desc shapeID="22" type="0" basicInfo-basicType="4" basicInfo-roundedRectRadius="12" basicInfo-polygonSides="6" basicInfo-starPoints="5" bounding="rect(-108.968,-101.959,217.937,203.917)" text="" font-familyName="Helvetica" font-pixelSize="20" font-bold="0" font-underline="0" font-alignment="1" strokeStyle="0" markerStart="0" markerEnd="0" shadowEnabled="0" shadowOffsetX="0" shadowOffsetY="2" shadowBlur="4" shadowOpacity="160" blurEnabled="0" blurRadius="4" transform="matrix(1.1382,0.31287,-0.293586,1.06805,342.784,180.519)" pers-center="0,0" pers-size="0,0" pers-start="0,0" pers-end="0,0" locked="0" mesh="" flag=""/>
            <path id="shapePath22" d="M218.756,146.426 C235.288,86.2843 304.219,52.7936 372.718,71.6226 C441.217,90.4516 483.345,154.47 466.813,214.612 C450.281,274.754 381.35,308.245 312.851,289.416 C244.352,270.587 202.224,206.568 218.756,146.426 Z" style="stroke:#323232;stroke-opacity:1;stroke-width:0;stroke-linejoin:miter;stroke-miterlimit:2;stroke-linecap:round;fill-rule:evenodd;fill:#b78f5d;fill-opacity:1;"/>
        </g>
        <g id="Shape23">
            <desc shapeID="23" type="0" basicInfo-basicType="0" basicInfo-roundedRectRadius="12" basicInfo-polygonSides="6" basicInfo-starPoints="5" bounding="rect(-72.9669,-68.727,145.934,137.454)" text="" font-familyName="Helvetica" font-pixelSize="20" font-bold="0" font-underline="0" font-alignment="1" strokeStyle="0" markerStart="0" markerEnd="0" shadowEnabled="0" shadowOffsetX="0" shadowOffsetY="2" shadowBlur="4" shadowOpacity="160" blurEnabled="0" blurRadius="4" transform="matrix(1,0,0,1,289.572,133.499)" pers-center="0,0" pers-size="0,0" pers-start="0,0" pers-end="0,0" locked="0" mesh="" flag=""/>
            <path id="shapePath23" d="M242.1,84.6143 C225.651,114.538 210.407,152.012 219.16,191.034 C241.842,196.948 268.023,212.242 289.256,192.308 C322.606,163.433 357.266,125.03 362.539,80.1536 C360.704,78.9235 360.331,74.9588 358.078,72.5067 C354.785,70.0945 351.374,67.112 347.245,65.4971 C310.697,63.173 266.897,65.6536 242.1,84.6143 Z" style="stroke:#323232;stroke-opacity:1;stroke-width:0;stroke-linejoin:miter;stroke-miterlimit:2;stroke-linecap:round;fill-rule:evenodd;fill:#b78f5d;fill-opacity:1;"/>
        </g>
        <g id="Shape24">
            <desc shapeID="24" type="0" basicInfo-basicType="0" basicInfo-roundedRectRadius="12" basicInfo-polygonSides="6" basicInfo-starPoints="5" bounding="rect(-116.481,-86.0119,232.962,172.024)" text="" font-familyName="Helvetica" font-pixelSize="20" font-bold="0" font-underline="0" font-alignment="1" strokeStyle="0" markerStart="0" markerEnd="0" shadowEnabled="0" shadowOffsetX="0" shadowOffsetY="2" shadowBlur="4" shadowOpacity="160" blurEnabled="0" blurRadius="4" transform="matrix(1,0,0,1,363.405,157.621)" pers-center="0,0" pers-size="0,0" pers-start="0,0" pers-end="0,0" locked="0" mesh="" flag=""/>
            <path id="shapePath24" d="M257.08,77.9569 C257.08,77.9569 252.637,94.461 252.637,94.461 C252.637,94.461 248.828,119.852 248.828,119.852 C248.828,119.852 246.924,141.434 246.924,141.434 C246.924,141.434 249.463,162.382 249.463,162.382 C249.463,162.382 254.541,189.042 254.541,189.042 C254.541,189.042 265.332,205.546 265.332,205.546 C265.332,205.546 279.297,219.511 279.297,219.511 C279.297,219.511 297.706,230.303 297.706,230.303 C297.706,230.303 319.288,238.555 319.288,238.555 C319.288,238.555 351.027,243.633 351.027,243.633 C351.027,243.633 377.052,241.094 377.052,241.094 C377.052,241.094 400.539,235.381 400.539,235.381 C400.539,235.381 422.756,226.494 422.756,226.494 C422.756,226.494 443.069,215.068 443.069,215.068 C443.069,215.068 460.208,202.373 460.208,202.373 C460.208,202.373 470.999,190.947 470.999,190.947 C470.999,190.947 479.886,178.886 479.886,178.886 C479.886,178.886 477.347,168.73 477.347,168.73 C477.347,168.73 467.19,176.982 467.19,176.982 C467.19,176.982 452.59,187.138 452.59,187.138 C452.59,187.138 441.799,192.216 441.799,192.216 C441.799,192.216 426.565,203.007 426.565,203.007 C426.565,203.007 410.695,208.72 410.695,208.72 C410.695,208.72 393.556,213.799 393.556,213.799 C393.556,213.799 376.418,213.799 376.418,213.799 C376.418,213.799 394.826,214.433 394.826,214.433 C394.826,214.433 373.244,220.146 373.244,220.146 C373.244,220.146 352.931,221.416 352.931,221.416 C352.931,221.416 332.618,218.877 332.618,218.877 C332.618,218.877 312.94,213.164 312.94,213.164 C312.94,213.164 294.532,201.738 294.532,201.738 C294.532,201.738 283.741,189.042 283.741,189.042 C283.741,189.042 274.854,174.443 274.854,174.443 C274.854,174.443 272.315,158.573 272.315,158.573 C272.315,158.573 269.141,136.991 269.141,136.991 C269.141,136.991 269.776,116.678 269.776,116.678 C269.776,116.678 269.141,100.809 269.141,100.809 C269.141,100.809 269.141,85.5742 269.141,85.5742 C269.141,85.5742 271.045,71.6092 271.045,71.6092 C271.045,71.6092 257.08,77.9569 257.08,77.9569 Z" style="stroke:#323232;stroke-opacity:1;stroke-width:0;stroke-linejoin:miter;stroke-miterlimit:2;stroke-linecap:round;fill-rule:evenodd;fill:#a97643;fill-opacity:1;"/>
        </g>
        <g id="Shape25">
            <desc shapeID="25" type="0" basicInfo-basicType="0" basicInfo-roundedRectRadius="12" basicInfo-polygonSides="6" basicInfo-starPoints="5" bounding="rect(-36.0453,-48.7486,72.0907,97.4971)" text="" font-familyName="Helvetica" font-pixelSize="20" font-bold="0" font-underline="0" font-alignment="1" strokeStyle="0" markerStart="0" markerEnd="0" shadowEnabled="0" shadowOffsetX="0" shadowOffsetY="2" shadowBlur="4" shadowOpacity="160" blurEnabled="0" blurRadius="4" transform="matrix(1,0,0,1,451.906,228.534)" pers-center="0,0" pers-size="0,0" pers-start="0,0" pers-end="0,0" locked="0" mesh="" flag=""/>
            <path id="shapePath25" d="M415.86,277.283 C446.607,262.677 470.593,231.53 487.951,202.652 C485.674,194.923 484.355,184.114 479.376,179.786 C470.191,192.416 456.031,205.609 445.395,221.389 " style="stroke:#323232;stroke-opacity:1;stroke-width:0;stroke-linejoin:miter;stroke-miterlimit:2;stroke-linecap:round;fill-rule:evenodd;fill:#b78f5d;fill-opacity:1;"/>
        </g>
        <g id="Shape26">
            <desc shapeID="26" type="0" basicInfo-basicType="0" basicInfo-roundedRectRadius="12" basicInfo-polygonSides="6" basicInfo-starPoints="5" bounding="rect(-16.5142,-11.9093,33.0284,23.8185)" text="" font-familyName="Helvetica" font-pixelSize="20" font-bold="0" font-underline="0" font-alignment="1" strokeStyle="0" markerStart="0" markerEnd="0" shadowEnabled="0" shadowOffsetX="0" shadowOffsetY="2" shadowBlur="4" shadowOpacity="160" blurEnabled="0" blurRadius="4" transform="matrix(1,0,0,1,460.004,180.897)" pers-center="0,0" pers-size="0,0" pers-start="0,0" pers-end="0,0" locked="0" mesh="" flag=""/>
            <path id="shapePath26" d="M476.518,168.988 C465.113,176.592 455.271,186.345 443.49,192.807 " style="stroke:#323232;stroke-opacity:1;stroke-width:0;stroke-linejoin:miter;stroke-miterlimit:2;stroke-linecap:round;fill-rule:evenodd;fill:#a97643;fill-opacity:1;"/>
        </g>
        <g id="Shape27">
            <desc shapeID="27" type="0" basicInfo-basicType="0" basicInfo-roundedRectRadius="12" basicInfo-polygonSides="6" basicInfo-starPoints="5" bounding="rect(-116.098,-84.4995,232.196,168.999)" text="" font-familyName="Helvetica" font-pixelSize="20" font-bold="0" font-underline="0" font-alignment="1" strokeStyle="0" markerStart="0" markerEnd="0" shadowEnabled="0" shadowOffsetX="0" shadowOffsetY="2" shadowBlur="4" shadowOpacity="160" blurEnabled="0" blurRadius="4" transform="matrix(1,0,0,1,363.687,155.355)" pers-center="0,0" pers-size="0,0" pers-start="0,0" pers-end="0,0" locked="0" mesh="" flag=""/>
            <path id="shapePath27" d="M273.862,70.8554 C273.862,70.8554 270.311,79.3764 270.311,79.3764 C270.311,79.3764 268.891,88.9625 268.891,88.9625 C268.891,88.9625 268.181,101.389 268.181,101.389 C268.181,101.389 267.826,114.525 267.826,114.525 C267.826,114.525 267.826,128.727 267.826,128.727 C267.826,128.727 268.891,138.668 268.891,138.668 C268.891,138.668 270.311,150.384 270.311,150.384 C270.311,150.384 270.666,158.905 270.666,158.905 C270.666,158.905 272.441,168.136 272.441,168.136 C272.441,168.136 276.347,178.432 276.347,178.432 C276.347,178.432 283.093,188.729 283.093,188.729 C283.093,188.729 290.548,196.895 290.548,196.895 C290.548,196.895 297.649,203.64 297.649,203.64 C297.649,203.64 308.655,209.321 308.655,209.321 C308.655,209.321 317.531,213.581 317.531,213.581 C317.531,213.581 328.538,217.132 328.538,217.132 C328.538,217.132 342.739,219.972 342.739,219.972 C342.739,219.972 356.231,221.392 356.231,221.392 C356.231,221.392 372.563,221.037 372.563,221.037 C372.563,221.037 385.699,218.552 385.699,218.552 C385.699,218.552 402.741,212.161 402.741,212.161 C402.741,212.161 417.653,206.126 417.653,206.126 C417.653,206.126 432.209,199.735 432.209,199.735 C432.209,199.735 443.571,190.504 443.571,190.504 C443.571,190.504 455.642,181.983 455.642,181.983 C455.642,181.983 463.453,174.527 463.453,174.527 C463.453,174.527 469.488,168.491 469.488,168.491 C469.488,168.491 473.749,162.101 473.749,162.101 C473.749,162.101 476.944,168.846 476.944,168.846 C476.944,168.846 478.364,175.947 478.364,175.947 C478.364,175.947 479.785,178.077 479.785,178.077 C479.785,178.077 470.909,188.019 470.909,188.019 C470.909,188.019 461.323,197.605 461.323,197.605 C461.323,197.605 383.924,228.493 383.924,228.493 C383.924,228.493 349.13,239.854 349.13,239.854 C349.13,239.854 318.241,237.724 318.241,237.724 C318.241,237.724 299.779,231.688 299.779,231.688 C299.779,231.688 288.418,225.653 288.418,225.653 C288.418,225.653 278.832,218.907 278.832,218.907 C278.832,218.907 268.891,210.386 268.891,210.386 C268.891,210.386 261.79,201.51 261.79,201.51 C261.79,201.51 255.754,190.859 255.754,190.859 C255.754,190.859 251.849,178.432 251.849,178.432 C251.849,178.432 249.719,167.781 249.719,167.781 C249.719,167.781 249.009,157.84 249.009,157.84 C249.009,157.84 247.589,147.899 247.589,147.899 C247.589,147.899 247.589,139.733 247.589,139.733 C247.589,139.733 249.364,126.597 249.364,126.597 C249.364,126.597 258.595,83.6369 258.595,83.6369 C258.595,83.6369 257.53,78.6663 257.53,78.6663 C257.53,78.6663 257.53,75.4709 257.53,75.4709 C257.53,75.4709 264.275,71.2105 264.275,71.2105 C264.275,71.2105 273.862,70.8554 273.862,70.8554 Z" style="stroke:#323232;stroke-opacity:1;stroke-width:0;stroke-linejoin:miter;stroke-miterlimit:2;stroke-linecap:round;fill-rule:evenodd;fill:#a97643;fill-opacity:1;"/>
        </g>
        <g id="Shape28">
            <desc shapeID="28" type="0" basicInfo-basicType="4" basicInfo-roundedRectRadius="12" basicInfo-polygonSides="6" basicInfo-starPoints="5" bounding="rect(-87.0352,-50.7437,174.07,101.487)" text="" font-familyName="Helvetica" font-pixelSize="20" font-bold="0" font-underline="0" font-alignment="1" strokeStyle="0" markerStart="0" markerEnd="0" shadowEnabled="0" shadowOffsetX="0" shadowOffsetY="2" shadowBlur="4" shadowOpacity="160" blurEnabled="0" blurRadius="4" transform="matrix(0.848091,0.312903,-0.397866,1.07837,363.162,130.587)" pers-center="0,0" pers-size="0,0" pers-start="0,0" pers-end="0,0" locked="0" mesh="" flag=""/>
            <path id="shapePath28" d="M289.349,103.353 C300.499,73.132 342.585,60.8256 383.352,75.8663 C424.118,90.9071 448.126,127.599 436.976,157.821 C425.826,188.042 383.739,200.348 342.973,185.308 C302.207,170.267 278.198,133.575 289.349,103.353 Z" style="stroke:#323232;stroke-opacity:1;stroke-width:0;stroke-linejoin:miter;stroke-miterlimit:2;stroke-linecap:round;fill-rule:evenodd;fill:#ab8750;fill-opacity:1;"/>
        </g>
        <g id="Shape29">
            <desc shapeID="29" type="0" basicInfo-basicType="0" basicInfo-roundedRectRadius="12" basicInfo-polygonSides="6" basicInfo-starPoints="5" bounding="rect(-94.906,-71.9139,189.812,143.828)" text="" font-familyName="Helvetica" font-pixelSize="20" font-bold="0" font-underline="0" font-alignment="1" strokeStyle="0" markerStart="0" markerEnd="0" shadowEnabled="0" shadowOffsetX="0" shadowOffsetY="2" shadowBlur="4" shadowOpacity="160" blurEnabled="0" blurRadius="4" transform="matrix(1,0,0,1,371.94,140.783)" pers-center="0,0" pers-size="0,0" pers-start="0,0" pers-end="0,0" locked="0" mesh="" flag=""/>
            <path id="shapePath29" d="M282.586,68.8694 C273.419,110.31 272.216,167.925 305.805,196.204 C341.514,221.818 397.208,216.567 432.765,187.59 L442.483,188.337 L448.462,188.836 C459.385,198.13 457.842,167.275 457.858,182.721 C452.497,188.094 435.218,191.609 433.14,184.594 C447.237,175.282 458.794,162.233 466.846,149.39 " style="stroke:#323232;stroke-opacity:1;stroke-width:0;stroke-linejoin:miter;stroke-miterlimit:2;stroke-linecap:round;fill-rule:evenodd;fill:#ab8750;fill-opacity:1;"/>
        </g>
        <g id="Shape30">
            <desc shapeID="30" type="0" basicInfo-basicType="0" basicInfo-roundedRectRadius="12" basicInfo-polygonSides="6" basicInfo-starPoints="5" bounding="rect(-8.63446,-3.51474,17.2689,7.02947)" text="" font-familyName="Helvetica" font-pixelSize="20" font-bold="0" font-underline="0" font-alignment="1" strokeStyle="0" markerStart="0" markerEnd="0" shadowEnabled="0" shadowOffsetX="0" shadowOffsetY="2" shadowBlur="4" shadowOpacity="160" blurEnabled="0" blurRadius="4" transform="matrix(1,0,0,1,440.276,186.985)" pers-center="0,0" pers-size="0,0" pers-start="0,0" pers-end="0,0" locked="0" mesh="" flag=""/>
            <path id="shapePath30" d="M437.259,184.594 C435.067,186.605 432.928,188.006 431.642,190.212 C437.41,190.49 440.321,191.036 445.124,189.088 C446.8,187.712 449.259,186.403 448.869,183.47 C445.541,184.272 439.365,182.668 437.259,184.594 Z" style="stroke:#323232;stroke-opacity:1;stroke-width:0;stroke-linejoin:miter;stroke-miterlimit:2;stroke-linecap:round;fill-rule:evenodd;fill:#b78f5d;fill-opacity:1;"/>
        </g>
        <g id="Shape31">
            <desc shapeID="31" type="0" basicInfo-basicType="0" basicInfo-roundedRectRadius="12" basicInfo-polygonSides="6" basicInfo-starPoints="5" bounding="rect(-7.11572,-5.73628,14.2315,11.4726)" text="" font-familyName="Helvetica" font-pixelSize="20" font-bold="0" font-underline="0" font-alignment="1" strokeStyle="0" markerStart="0" markerEnd="0" shadowEnabled="0" shadowOffsetX="0" shadowOffsetY="2" shadowBlur="4" shadowOpacity="160" blurEnabled="0" blurRadius="4" transform="matrix(1,0,0,1,453.363,186.21)" pers-center="0,0" pers-size="0,0" pers-start="0,0" pers-end="0,0" locked="0" mesh="" flag=""/>
            <path id="shapePath31" d="M459.356,181.972 C453.738,183.04 449.701,188.678 446.248,191.71 C455.418,193.267 459.194,186.888 460.479,180.474 L459.356,181.972 Z" style="stroke:#323232;stroke-opacity:1;stroke-width:0;stroke-linejoin:miter;stroke-miterlimit:2;stroke-linecap:round;fill-rule:evenodd;fill:#a97643;fill-opacity:1;"/>
        </g>
        <g id="Shape32">
            <desc shapeID="32" type="0" basicInfo-basicType="0" basicInfo-roundedRectRadius="12" basicInfo-polygonSides="6" basicInfo-starPoints="5" bounding="rect(-4.13411,-4.67938,8.26824,9.35878)" text="" font-familyName="Helvetica" font-pixelSize="20" font-bold="0" font-underline="0" font-alignment="1" strokeStyle="0" markerStart="0" markerEnd="0" shadowEnabled="0" shadowOffsetX="0" shadowOffsetY="2" shadowBlur="4" shadowOpacity="160" blurEnabled="0" blurRadius="4" transform="matrix(1,0,0,1,451.102,187.775)" pers-center="0,0" pers-size="0,0" pers-start="0,0" pers-end="0,0" locked="0" mesh="" flag=""/>
            <path id="shapePath32" d="M455.236,183.096 C449.719,185.178 440.984,194.401 452.989,192.084 " style="stroke:#323232;stroke-opacity:1;stroke-width:0;stroke-linejoin:miter;stroke-miterlimit:2;stroke-linecap:round;fill-rule:evenodd;fill:#a97643;fill-opacity:1;"/>
        </g>
        <g id="Shape33">
            <desc shapeID="33" type="0" basicInfo-basicType="0" basicInfo-roundedRectRadius="12" basicInfo-polygonSides="6" basicInfo-starPoints="5" bounding="rect(-29.0385,-39.0111,58.077,78.0221)" text="" font-familyName="Helvetica" font-pixelSize="20" font-bold="0" font-underline="0" font-alignment="1" strokeStyle="0" markerStart="0" markerEnd="0" shadowEnabled="0" shadowOffsetX="0" shadowOffsetY="2" shadowBlur="4" shadowOpacity="160" blurEnabled="0" blurRadius="4" transform="matrix(1,0,0,1,440.054,150.575)" pers-center="0,0" pers-size="0,0" pers-start="0,0" pers-end="0,0" locked="0" mesh="" flag=""/>
            <path id="shapePath33" d="M432.391,188.339 C444.82,179.812 461.528,165.26 469.093,152.76 C458.009,138.4 450.889,121.188 435.387,111.564 C396.333,114.871 414.269,159.896 421.155,183.47 C422.185,190.377 437.726,190.523 432.391,188.339 Z" style="stroke:#323232;stroke-opacity:1;stroke-width:0;stroke-linejoin:miter;stroke-miterlimit:2;stroke-linecap:round;fill-rule:evenodd;fill:#ab8750;fill-opacity:1;"/>
        </g>
        <g id="Shape34">
            <desc shapeID="34" type="0" basicInfo-basicType="0" basicInfo-roundedRectRadius="12" basicInfo-polygonSides="6" basicInfo-starPoints="5" bounding="rect(-26.851,-13.4721,53.7019,26.9443)" text="" font-familyName="Helvetica" font-pixelSize="20" font-bold="0" font-underline="0" font-alignment="1" strokeStyle="0" markerStart="0" markerEnd="0" shadowEnabled="0" shadowOffsetX="0" shadowOffsetY="2" shadowBlur="4" shadowOpacity="160" blurEnabled="0" blurRadius="4" transform="matrix(1,0,0,1,310.911,75.9857)" pers-center="0,0" pers-size="0,0" pers-start="0,0" pers-end="0,0" locked="0" mesh="" flag=""/>
            <path id="shapePath34" d="M284.084,69.2439 C300.159,62.2493 340.261,53.4654 337.639,84.599 C321.505,94.4119 282.964,89.3949 284.084,69.2439 Z" style="stroke:#323232;stroke-opacity:1;stroke-width:0;stroke-linejoin:miter;stroke-miterlimit:2;stroke-linecap:round;fill-rule:evenodd;fill:#ab8750;fill-opacity:1;"/>
        </g>
        <g id="Shape35">
            <desc shapeID="35" type="0" basicInfo-basicType="0" basicInfo-roundedRectRadius="12" basicInfo-polygonSides="6" basicInfo-starPoints="5" bounding="rect(-77.3478,-58.5544,154.696,117.109)" text="" font-familyName="Helvetica" font-pixelSize="20" font-bold="0" font-underline="0" font-alignment="1" strokeStyle="0" markerStart="0" markerEnd="0" shadowEnabled="0" shadowOffsetX="0" shadowOffsetY="2" shadowBlur="4" shadowOpacity="160" blurEnabled="0" blurRadius="4" transform="matrix(1,0,0,1,377.888,122.93)" pers-center="0,0" pers-size="0,0" pers-start="0,0" pers-end="0,0" locked="0" mesh="" flag=""/>
            <path id="shapePath35" d="M302.06,64.3753 C300.406,77.3419 300.08,90.4355 301.311,103.699 C288.32,191.921 443.667,212.276 455.236,127.293 " style="stroke:#323232;stroke-opacity:1;stroke-width:0;stroke-linejoin:miter;stroke-miterlimit:2;stroke-linecap:round;fill-rule:evenodd;fill:#9b714e;fill-opacity:1;"/>
        </g>
        <g id="Shape36">
            <desc shapeID="36" type="0" basicInfo-basicType="0" basicInfo-roundedRectRadius="12" basicInfo-polygonSides="6" basicInfo-starPoints="5" bounding="rect(-75.277,-32.7373,150.554,65.4745)" text="" font-familyName="Helvetica" font-pixelSize="20" font-bold="0" font-underline="0" font-alignment="1" strokeStyle="0" markerStart="0" markerEnd="0" shadowEnabled="0" shadowOffsetX="0" shadowOffsetY="2" shadowBlur="4" shadowOpacity="160" blurEnabled="0" blurRadius="4" transform="matrix(1,0,0,1,378.461,95.6797)" pers-center="0,0" pers-size="0,0" pers-start="0,0" pers-end="0,0" locked="0" mesh="" flag=""/>
            <path id="shapePath36" d="M303.184,66.2478 C332.323,52.8321 367.47,83.646 392.692,98.0814 C415.544,99.8309 445.839,110.221 453.738,128.417 " style="stroke:#323232;stroke-opacity:1;stroke-width:0;stroke-linejoin:miter;stroke-miterlimit:2;stroke-linecap:round;fill-rule:evenodd;fill:#9b714e;fill-opacity:1;"/>
        </g>
        <g id="Shape37">
            <desc shapeID="37" type="0" basicInfo-basicType="0" basicInfo-roundedRectRadius="12" basicInfo-polygonSides="6" basicInfo-starPoints="5" bounding="rect(-71.2946,-54.8954,142.589,109.791)" text="" font-familyName="Helvetica" font-pixelSize="20" font-bold="0" font-underline="0" font-alignment="1" strokeStyle="0" markerStart="0" markerEnd="0" shadowEnabled="0" shadowOffsetX="0" shadowOffsetY="2" shadowBlur="4" shadowOpacity="160" blurEnabled="0" blurRadius="4" transform="matrix(1,0,0,1,381.411,116.305)" pers-center="0,0" pers-size="0,0" pers-start="0,0" pers-end="0,0" locked="0" mesh="" flag=""/>
            <path id="shapePath37" d="M312.106,64.9397 C311.811,77.3803 308.182,90.6677 311.517,103.178 C311.192,111.311 314.498,117.408 316.812,124.356 C325.531,182.974 437.79,189.914 452.706,126.121 C421.219,91.1715 369.558,62.4422 312.694,66.1162 C311.909,64.7936 312.278,61.789 310.929,61.41 C310.878,62.7206 310.825,64.0323 312.106,64.9397 Z" style="stroke:#323232;stroke-opacity:1;stroke-width:0;stroke-linejoin:miter;stroke-miterlimit:2;stroke-linecap:round;fill-rule:evenodd;fill:#ab8750;fill-opacity:1;"/>
        </g>
        <g id="Shape38">
            <desc shapeID="38" type="0" basicInfo-basicType="0" basicInfo-roundedRectRadius="12" basicInfo-polygonSides="6" basicInfo-starPoints="5" bounding="rect(-55.7268,-34.9613,111.454,69.9226)" text="" font-familyName="Helvetica" font-pixelSize="20" font-bold="0" font-underline="0" font-alignment="1" strokeStyle="0" markerStart="0" markerEnd="0" shadowEnabled="0" shadowOffsetX="0" shadowOffsetY="2" shadowBlur="4" shadowOpacity="160" blurEnabled="0" blurRadius="4" transform="matrix(1,0,0,1,386.978,99.3127)" pers-center="0,0" pers-size="0,0" pers-start="0,0" pers-end="0,0" locked="0" mesh="" flag=""/>
            <path id="shapePath38" d="M332.107,64.3514 C327.516,93.1428 342.036,115.714 360.345,130.239 C389.611,139.397 427.092,132.818 442.705,112.002 C439.003,110.358 437.046,106.587 433.292,106.12 C401.516,128.452 331.367,119.888 345.638,66.1162 C342.475,63.616 335.846,65.7391 332.107,64.3514 Z" style="stroke:#323232;stroke-opacity:1;stroke-width:0;stroke-linejoin:miter;stroke-miterlimit:2;stroke-linecap:round;fill-rule:evenodd;fill:#d0a471;fill-opacity:1;"/>
        </g>
        <g id="Shape39">
            <desc shapeID="39" type="0" basicInfo-basicType="0" basicInfo-roundedRectRadius="12" basicInfo-polygonSides="6" basicInfo-starPoints="5" bounding="rect(0,0,0,0)" text="" font-familyName="Helvetica" font-pixelSize="20" font-bold="0" font-underline="0" font-alignment="1" strokeStyle="0" markerStart="0" markerEnd="0" shadowEnabled="0" shadowOffsetX="0" shadowOffsetY="2" shadowBlur="4" shadowOpacity="160" blurEnabled="0" blurRadius="4" transform="matrix(1,0,0,1,362.595,131.002)" pers-center="0,0" pers-size="0,0" pers-start="0,0" pers-end="0,0" locked="0" mesh="" flag=""/>
            <path id="shapePath39" d="M362.595,131.002 Z" style="stroke:#323232;stroke-opacity:1;stroke-width:0;stroke-linejoin:miter;stroke-miterlimit:2;stroke-linecap:round;fill-rule:evenodd;fill:#ab8750;fill-opacity:1;"/>
        </g>
    </g>
</svg>
